<svg width="70" height="58" viewBox="0 0 70 58" fill="none" xmlns="http://www.w3.org/2000/svg">
<g clip-path="url(#clip0_185_16)">
<path d="M69.9706 15.6044C69.981 27.9323 70.0043 40.2576 69.9887 52.5855C69.9861 55.5439 67.6753 57.8606 64.7498 57.9579C63.6501 57.9947 62.5478 57.9737 61.4456 57.9737C42.9458 57.9737 24.4433 57.9421 5.94353 58.0052C2.59266 58.0158 0.499666 55.7858 0.11582 53.5742C0.0380133 53.1272 0.00429714 52.6644 0.00429714 52.2094C-0.000889967 36.7286 -0.000889967 21.2556 0.00170359 5.77999C0.00429714 2.33775 2.25809 0.0315297 5.65306 0.0262703C14.3363 0.0104923 23.0195 0.044678 31.7027 -2.63809e-05C33.6401 -0.0105451 35.025 0.846727 36.187 2.2799C36.5526 2.43505 36.6745 2.76902 36.8146 3.11087C37.7016 5.29613 38.8635 7.34464 39.9813 9.40893C40.5441 10.4477 41.496 10.9394 42.6838 11.0683C44.852 11.3023 47.0228 11.184 49.191 11.1971C53.9865 11.2208 58.782 11.1918 63.5775 11.2129C64.9624 11.2181 66.2825 11.3338 67.5741 12.1228C68.9643 12.9695 69.6619 14.1003 69.9706 15.6044Z" fill="#84D6FF"/>
<path d="M69.9715 15.6044C69.5876 14.9023 69.2141 14.1949 68.8173 13.4981C68.3635 12.7013 66.3068 11.6836 65.3523 11.6363C58.1682 11.2786 50.9815 11.61 43.7999 11.4601C42.6847 11.4364 41.5746 11.3312 40.5502 10.5581C39.8681 10.0427 39.4765 9.3353 39.2197 8.72785C38.6206 7.3052 37.7751 6.02718 37.1656 4.62293C36.8284 3.84718 36.5146 3.06091 36.1904 2.2799C38.6491 2.26675 41.1078 2.24571 43.5691 2.24308C50.1412 2.23782 56.7106 2.23782 63.2827 2.24308C67.2664 2.24571 69.9922 4.99372 70.0026 9.01974C70.0078 11.2129 69.9844 13.4087 69.9741 15.6018L69.9715 15.6044Z" fill="#0088CC"/>
<path d="M50.8101 26.4157C49.6882 29.7302 47.7229 32.5632 45.2166 34.7291C43.709 30.8899 40.9819 27.5771 37.3889 25.3775C36.1774 24.6337 34.8698 24.0178 33.4759 23.5539C32.9781 23.3844 32.466 23.2356 31.9474 23.1076C28.5545 22.271 25.1472 22.3958 22.0136 23.3092C22.5049 23.0357 23.0411 22.8117 23.6156 22.6453L35.4028 19.2333L41.3372 17.5153C41.7581 17.3937 42.1758 17.3089 42.5903 17.2593C42.5935 17.2577 42.5935 17.2561 42.5951 17.2577C47.6252 16.6643 51.972 21.2616 50.8101 26.4157Z" fill="url(#paint0_linear_185_16)"/>
<path d="M31.9474 23.1062C32.466 23.2341 32.9781 23.3829 33.4758 23.5525C31.7986 25.6496 30.5391 28.1371 29.8541 30.9157C29.1643 33.7134 29.1275 36.5224 29.6492 39.1763C29.8909 40.4128 30.2558 41.6189 30.7311 42.7739C31.6706 45.063 33.0469 47.1585 34.7866 48.9293C34.4425 48.691 34.1096 48.4238 33.7927 48.1183L29.3371 43.8408L20.4868 35.3419C20.1155 34.9884 19.7938 34.6093 19.5153 34.2125C16.953 30.5781 18.1549 25.4481 22.0168 23.3077C25.1456 22.3943 28.5545 22.2712 31.9474 23.1062Z" fill="url(#paint1_linear_185_16)"/>
<path d="M50.8101 26.4158C50.8005 26.467 50.7877 26.5197 50.7733 26.5725L46.3577 44.479C46.3417 44.5462 46.3241 44.6134 46.3065 44.6774C46.3081 44.6806 46.3081 44.6822 46.3049 44.6838C44.9109 49.7499 38.9541 51.7814 34.7882 48.934C34.7866 48.934 34.7866 48.934 34.785 48.9308C33.0469 47.16 31.669 45.0645 30.7295 42.7754C30.2542 41.6204 29.8893 40.4159 29.6476 39.1778C31.08 39.4097 32.5076 39.4705 33.9064 39.3793C38.1219 39.1058 42.0893 37.4374 45.215 34.7308C47.7229 32.5632 49.6882 29.7302 50.8101 26.4158Z" fill="url(#paint2_linear_185_16)"/>
</g>
<defs>
<linearGradient id="paint0_linear_185_16" x1="58.3548" y1="42.5944" x2="27.2219" y2="13.7736" gradientUnits="userSpaceOnUse">
<stop stop-color="white"/>
<stop offset="0.0245" stop-color="#F7FBFD"/>
<stop offset="0.3053" stop-color="#A1D3EC"/>
<stop offset="0.5529" stop-color="#5CB3DE"/>
<stop offset="0.758" stop-color="#2A9CD4"/>
<stop offset="0.9131" stop-color="#0B8DCE"/>
<stop offset="1" stop-color="#0088CC"/>
</linearGradient>
<linearGradient id="paint1_linear_185_16" x1="23.5761" y1="46.1167" x2="38.2421" y2="8.53916" gradientUnits="userSpaceOnUse">
<stop stop-color="#0088CC"/>
<stop offset="0.0869" stop-color="#0B8DCE"/>
<stop offset="0.242" stop-color="#2A9CD4"/>
<stop offset="0.4471" stop-color="#5CB3DE"/>
<stop offset="0.6947" stop-color="#A1D3EC"/>
<stop offset="0.9755" stop-color="#F7FBFD"/>
<stop offset="1" stop-color="white"/>
</linearGradient>
<linearGradient id="paint2_linear_185_16" x1="53.854" y1="40.3685" x2="13.7587" y2="31.5933" gradientUnits="userSpaceOnUse">
<stop stop-color="#0088CC"/>
<stop offset="0.0869" stop-color="#0B8DCE"/>
<stop offset="0.242" stop-color="#2A9CD4"/>
<stop offset="0.4471" stop-color="#5CB3DE"/>
<stop offset="0.6947" stop-color="#A1D3EC"/>
<stop offset="0.9755" stop-color="#F7FBFD"/>
<stop offset="1" stop-color="white"/>
</linearGradient>
<clipPath id="clip0_185_16">
<rect width="70" height="58" fill="white"/>
</clipPath>
</defs>
</svg>
