<svg width="202" height="50" viewBox="0 0 202 50" fill="none" xmlns="http://www.w3.org/2000/svg">
<path d="M95.6868 17.8958C97.1243 19.3158 97.8502 21.3058 97.867 23.8656L97.9317 35.0077L93.1281 35.0364L93.0658 24.5457C93.0563 23.061 92.6729 21.9236 91.9135 21.1405C91.154 20.3575 90.1238 19.9672 88.8181 19.9767C87.5148 19.9839 86.4822 20.3838 85.7204 21.1764C84.9585 21.9691 84.5824 23.1089 84.592 24.5936L84.6543 35.0843L79.8507 35.1131L79.7885 24.6223C79.7789 23.1376 79.3956 22.0002 78.6361 21.2172C77.8766 20.4341 76.844 20.0438 75.5407 20.0534C74.2135 20.0606 73.1713 20.4605 72.4095 21.2531C71.6476 22.0457 71.2715 23.1855 71.2811 24.6702L71.3434 35.161L66.5398 35.1897L66.4272 16.1957L71.2307 16.1669L71.2451 18.4634C71.8584 17.6612 72.649 17.0266 73.6193 16.5644C74.5872 16.0999 75.6557 15.8652 76.8225 15.8604C78.3079 15.8508 79.6375 16.1573 80.8067 16.7799C81.9758 17.4025 82.8862 18.2957 83.533 19.4571C84.144 18.3556 85.0376 17.4696 86.2115 16.8015C87.3855 16.131 88.6576 15.7934 90.0304 15.7838C92.3639 15.7718 94.2494 16.4758 95.6868 17.8958ZM105.577 34.433C104.338 33.8798 103.356 33.1255 102.63 32.1701C101.904 31.2146 101.504 30.1538 101.427 28.9877L106.264 28.9589C106.36 29.6893 106.724 30.2927 107.357 30.7692C107.989 31.2458 108.773 31.4804 109.712 31.4757C110.627 31.4709 111.341 31.2841 111.854 30.9153C112.366 30.5489 112.62 30.0772 112.618 29.5049C112.613 28.8871 112.297 28.4273 111.667 28.1232C111.037 27.8167 110.033 27.4862 108.66 27.1294C107.239 26.7942 106.077 26.447 105.172 26.0878C104.266 25.7286 103.485 25.173 102.829 24.4211C102.172 23.6716 101.839 22.6563 101.832 21.3752C101.827 20.324 102.124 19.3637 102.723 18.4897C103.325 17.6181 104.189 16.926 105.318 16.416C106.446 15.9059 107.778 15.6473 109.309 15.6377C111.573 15.6257 113.382 16.1813 114.74 17.3044C116.096 18.4274 116.849 19.9504 116.997 21.8685L112.4 21.8948C112.328 21.1405 112.009 20.5419 111.446 20.0989C110.883 19.6559 110.133 19.438 109.194 19.4451C108.325 19.4499 107.656 19.6128 107.189 19.936C106.722 20.2593 106.489 20.7071 106.494 21.277C106.499 21.9164 106.82 22.4001 107.464 22.7282C108.107 23.0562 109.103 23.3867 110.454 23.7219C111.83 24.0572 112.963 24.4044 113.856 24.7636C114.75 25.1252 115.526 25.6855 116.183 26.447C116.839 27.2085 117.182 28.219 117.213 29.4762C117.22 30.5729 116.921 31.5571 116.322 32.4287C115.72 33.3027 114.855 33.9852 113.727 34.4857C112.599 34.9838 111.279 35.2376 109.769 35.2448C108.212 35.2567 106.815 34.9862 105.577 34.433ZM129.815 19.7708L126.487 19.79L126.576 34.8425L121.705 34.8712L121.616 19.8187L119.455 19.8307L119.431 15.8891L121.592 15.8772L121.588 14.9169C121.573 12.5846 122.227 10.8677 123.547 9.76134C124.867 8.65503 126.865 8.13061 129.542 8.18329L129.565 12.2302C128.399 12.2134 127.589 12.4122 127.134 12.8264C126.679 13.2407 126.453 13.9854 126.461 15.0606L126.465 15.8484L129.793 15.8293L129.815 19.7708ZM136.518 33.8751C135.049 33.0729 133.892 31.9306 133.049 30.4484C132.206 28.9685 131.779 27.2564 131.767 25.3119C131.755 23.3699 132.174 21.653 133.023 20.1611C133.871 18.6717 135.037 17.5151 136.518 16.6937C137.999 15.8748 139.654 15.4581 141.484 15.4461C143.315 15.4366 144.975 15.8317 146.465 16.6363C147.955 17.4385 149.134 18.5807 150.001 20.0606C150.869 21.5404 151.307 23.2526 151.319 25.197C151.331 27.139 150.9 28.8584 150.028 30.3478C149.156 31.8396 147.972 32.9938 146.48 33.8152C144.987 34.6341 143.312 35.0508 141.461 35.0628C139.635 35.0748 137.987 34.6773 136.518 33.8751ZM143.89 30.2305C144.654 29.8042 145.26 29.1649 145.713 28.3172C146.166 27.4695 146.389 26.4398 146.381 25.2281C146.372 23.4226 145.888 22.0361 144.934 21.0687C143.978 20.1037 142.817 19.6247 141.444 19.6319C140.071 19.6391 138.926 20.1324 138.006 21.1094C137.086 22.0864 136.631 23.4777 136.64 25.2832C136.65 27.0887 137.11 28.4752 138.02 29.4426C138.928 30.4101 140.069 30.8866 141.441 30.8794C142.309 30.8746 143.126 30.6591 143.89 30.2305ZM162.023 16.2196C163.015 15.6425 164.151 15.3504 165.433 15.3432L165.461 20.3838L164.192 20.391C162.682 20.3982 161.547 20.7598 160.785 21.4734C160.023 22.187 159.647 23.4226 159.656 25.1826L159.712 34.6461L154.908 34.6749L154.795 15.6784L159.599 15.6497L159.616 18.5974C160.229 17.5917 161.032 16.7991 162.023 16.2196ZM183.207 16.1837C184.33 16.8063 185.212 17.7258 185.847 18.9447C186.482 20.1659 186.805 21.6314 186.817 23.346L186.882 34.4905L182.078 34.5168L182.016 24.026C182.007 22.5174 181.623 21.3608 180.864 20.5538C180.104 19.7469 179.072 19.347 177.768 19.3541C176.441 19.3613 175.399 19.7732 174.637 20.5898C173.875 21.4063 173.499 22.5677 173.509 24.0763L173.571 34.5671L168.768 34.5958L168.619 9.22256L173.423 9.19382L173.473 17.9365C174.086 17.1104 174.906 16.4615 175.931 15.9849C176.956 15.5108 178.099 15.2689 179.357 15.2618C180.799 15.2546 182.081 15.5611 183.207 16.1837ZM198.557 16.0065C199.548 15.4294 200.684 15.1372 201.966 15.1301L201.995 20.1707L200.725 20.1779C199.215 20.1851 198.08 20.5467 197.318 21.2603C196.556 21.9739 196.18 23.2095 196.19 24.9695L196.245 34.433L191.441 34.4617L191.329 15.4653L196.132 15.4366L196.149 18.3843C196.762 17.3786 197.565 16.5836 198.557 16.0065Z" fill="url(#paint0_linear_328_237)"/>
<path d="M48.8758 13.7867C47.1964 18.7483 44.2543 22.9891 40.5026 26.2314C38.2457 20.4844 34.1633 15.5251 28.7848 12.2326C26.9712 11.1191 25.0139 10.1971 22.9272 9.50271C22.1821 9.24888 21.4154 9.02618 20.6392 8.83461C15.5601 7.58223 10.4595 7.76901 5.76862 9.13633C6.50412 8.72686 7.3067 8.39161 8.16679 8.14257L25.8117 3.03487L34.6952 0.463058C35.3253 0.281068 35.9506 0.154154 36.5711 0.0799212C36.5759 0.0775266 36.5759 0.0751315 36.5783 0.0775261C44.1082 -0.810874 50.6151 6.07123 48.8758 13.7867Z" fill="url(#paint1_linear_328_237)"/>
<path d="M20.6392 8.83223C21.4154 9.0238 22.182 9.2465 22.9271 9.50033C20.4164 12.6397 18.5309 16.3633 17.5055 20.5227C16.4729 24.7109 16.4178 28.9158 17.1988 32.8885C17.5606 34.7395 18.1068 36.545 18.8184 38.274C20.2247 41.7006 22.2851 44.8376 24.8893 47.4884C24.3742 47.1316 23.8759 46.7317 23.4015 46.2743L16.7317 39.8712L3.48302 27.1486C2.9272 26.6194 2.44565 26.0519 2.02879 25.458C-1.80685 20.0175 -0.00762297 12.3379 5.77338 9.13395C10.4571 7.76663 15.5601 7.58225 20.6392 8.83223Z" fill="url(#paint2_linear_328_237)"/>
<path d="M48.8757 13.7866C48.8614 13.8632 48.8422 13.9423 48.8206 14.0213L42.2107 40.8265C42.1867 40.9271 42.1604 41.0277 42.134 41.1235C42.1364 41.1283 42.1364 41.1307 42.1316 41.1331C40.0449 48.7168 31.1278 51.7579 24.8916 47.4955C24.8892 47.4955 24.8892 47.4955 24.8869 47.4907C22.285 44.8399 20.2223 41.703 18.816 38.2763C18.1044 36.5474 17.5582 34.7442 17.1964 32.8908C19.3406 33.238 21.4777 33.329 23.5716 33.1925C29.882 32.7831 35.8212 30.2855 40.5001 26.2338C44.2543 22.9891 47.1963 18.7483 48.8757 13.7866Z" fill="url(#paint3_linear_328_237)"/>
<defs>
<linearGradient id="paint0_linear_328_237" x1="66.4315" y1="21.7131" x2="201.994" y2="21.7131" gradientUnits="userSpaceOnUse">
<stop stop-color="#34ACE0"/>
<stop offset="0.4307" stop-color="#209ED8"/>
<stop offset="1" stop-color="#0088CC"/>
</linearGradient>
<linearGradient id="paint1_linear_328_237" x1="60.1699" y1="38.0055" x2="13.5653" y2="-5.1381" gradientUnits="userSpaceOnUse">
<stop stop-color="white"/>
<stop offset="0.0245" stop-color="#F7FBFD"/>
<stop offset="0.3053" stop-color="#A1D3EC"/>
<stop offset="0.5529" stop-color="#5CB3DE"/>
<stop offset="0.758" stop-color="#2A9CD4"/>
<stop offset="0.9131" stop-color="#0B8DCE"/>
<stop offset="1" stop-color="#0088CC"/>
</linearGradient>
<linearGradient id="paint2_linear_328_237" x1="8.10763" y1="43.2781" x2="30.0621" y2="-12.974" gradientUnits="userSpaceOnUse">
<stop stop-color="#0088CC"/>
<stop offset="0.0869" stop-color="#0B8DCE"/>
<stop offset="0.242" stop-color="#2A9CD4"/>
<stop offset="0.4471" stop-color="#5CB3DE"/>
<stop offset="0.6947" stop-color="#A1D3EC"/>
<stop offset="0.9755" stop-color="#F7FBFD"/>
<stop offset="1" stop-color="white"/>
</linearGradient>
<linearGradient id="paint3_linear_328_237" x1="53.4324" y1="34.6732" x2="-6.58864" y2="21.5372" gradientUnits="userSpaceOnUse">
<stop stop-color="#0088CC"/>
<stop offset="0.0869" stop-color="#0B8DCE"/>
<stop offset="0.242" stop-color="#2A9CD4"/>
<stop offset="0.4471" stop-color="#5CB3DE"/>
<stop offset="0.6947" stop-color="#A1D3EC"/>
<stop offset="0.9755" stop-color="#F7FBFD"/>
<stop offset="1" stop-color="white"/>
</linearGradient>
</defs>
</svg>
