<svg width="22" height="12" viewBox="0 0 22 12" fill="none" xmlns="http://www.w3.org/2000/svg">
<path d="M12.8333 6C12.8333 6.94543 12.0111 7.71429 11 7.71429C9.98892 7.71429 9.16667 6.94543 9.16667 6C9.16667 5.05457 9.98892 4.28571 11 4.28571C12.0111 4.28571 12.8333 5.05457 12.8333 6ZM22 5.61514C22 5.61514 18.1023 12 11.0138 12C4.43208 12 0 5.61514 0 5.61514C0 5.61514 4.0755 0 11.0138 0C18.0666 0 22 5.61514 22 5.61514ZM14.6667 6C14.6667 4.10743 13.0249 2.57143 11 2.57143C8.976 2.57143 7.33333 4.10743 7.33333 6C7.33333 7.89343 8.976 9.42857 11 9.42857C13.0249 9.42857 14.6667 7.89343 14.6667 6Z" fill="#373737"/>
</svg>
