<svg width="19" height="16" viewBox="0 0 19 16" fill="none" xmlns="http://www.w3.org/2000/svg">
<path fill-rule="evenodd" clip-rule="evenodd" d="M17.02 3.76618C16.5986 3.0212 15.933 2.66941 15.082 2.66856C13.3373 2.66603 11.5923 2.66265 9.84773 2.67194C9.49509 2.67363 9.22142 2.5634 8.98323 2.30325C8.50432 1.78042 8.00386 1.27743 7.52368 0.755861C7.05702 0.249073 6.48392 0.00285921 5.80061 0.00201456C4.60205 0.000747592 3.40308 -0.00220881 2.2041 0.00285906C1.06763 0.00750462 0.241147 0.703493 0.0266066 1.82349C0.0223833 1.84503 0.0092911 1.86446 0 1.88515V12.765C0.0916441 13.029 0.146124 13.3136 0.281689 13.5527C0.708235 14.3044 1.38184 14.6486 2.23958 14.6486C4.81955 14.6481 7.39994 14.6486 9.97991 14.6486V13.3407H8.64706C6.50208 13.3407 4.35668 13.3407 2.21128 13.3402C1.76151 13.3398 1.43379 13.1109 1.33623 12.7216C1.31047 12.6198 1.30793 12.51 1.30751 12.4036C1.30625 9.01992 1.30624 5.63584 1.30667 2.25177C1.30709 1.62969 1.63143 1.30915 2.25647 1.30915C3.43349 1.30872 4.61008 1.31295 5.78709 1.30619C6.10088 1.3045 6.35047 1.40755 6.56459 1.63814C7.06631 2.17913 7.5807 2.70746 8.08453 3.24634C8.54571 3.73877 9.10908 3.97865 9.78227 3.9778C11.556 3.97527 13.3298 3.97612 15.1031 3.97738C15.5432 3.9778 15.8658 4.2067 15.9629 4.59228C15.99 4.69955 15.9925 4.81527 15.9925 4.92719C15.9929 6.00284 15.9933 7.0785 15.9933 8.15458H17.3V4.55428C17.2092 4.29028 17.1552 4.00521 17.02 3.76618Z" fill="#373737"/>
<path d="M14.5127 16C16.5186 16 18.1447 14.3739 18.1447 12.368C18.1447 10.3621 16.5186 8.73603 14.5127 8.73603C12.5068 8.73603 10.8807 10.3621 10.8807 12.368C10.8807 14.3739 12.5068 16 14.5127 16Z" fill="#373737"/>
<path d="M14.4616 10.1539V12.6154H12.6155" stroke="white"/>
</svg>
