<svg width="17" height="17" viewBox="0 0 17 17" fill="none" xmlns="http://www.w3.org/2000/svg">
<path d="M4.6077 11.887C4.53156 11.8073 4.48723 11.759 4.44112 11.7129C3.41617 10.6874 2.39055 9.6623 1.36539 8.63663C1.09042 8.36166 1.08418 8.17013 1.36917 7.91365C2.94966 6.49121 4.76225 6.06327 6.80878 6.66069C6.90431 6.68852 6.9769 6.71885 7.06908 6.62531C7.78337 5.90075 8.5053 5.18374 9.22434 4.46428C9.23702 4.45159 9.24636 4.43556 9.28382 4.38614C9.20589 4.31932 9.11901 4.25476 9.04329 4.17861C8.39577 3.52532 8.3771 2.56202 8.99722 1.9374C9.6178 1.3119 10.5829 1.31818 11.2395 1.96727C12.2059 2.92251 13.1625 3.88709 14.1233 4.84794C14.4462 5.17081 14.7771 5.48701 15.0886 5.82079C15.5102 6.27262 15.6358 6.80836 15.4369 7.39415C15.2407 7.97202 14.8232 8.32225 14.2223 8.43025C13.7159 8.52112 13.2694 8.37481 12.8938 8.02496C12.7918 7.93011 12.7074 7.81637 12.6108 7.70633C12.5431 7.76996 12.5025 7.80602 12.4642 7.84433C11.7789 8.52926 11.0955 9.21577 10.4077 9.89782C10.3213 9.98377 10.295 10.0528 10.3324 10.1811C10.9267 12.2165 10.5098 14.0286 9.10412 15.612C8.83491 15.9155 8.63965 15.9108 8.3533 15.6245C7.33213 14.6038 6.31139 13.5825 5.29001 12.5617C5.24343 12.5151 5.19448 12.4711 5.1308 12.411L4.6077 11.887Z" stroke="#373737" stroke-width="1.5" stroke-miterlimit="10"/>
<path d="M2.25656 14.7436L4.86047 12.1397" stroke="#373737" stroke-width="1.5" stroke-miterlimit="10"/>
</svg>
