<svg width="16" height="16" viewBox="0 0 16 16" fill="none" xmlns="http://www.w3.org/2000/svg">
<path d="M8.75171 4.9791L8.63843 8.95956H7.76733L7.65405 4.9791H8.75171ZM7.6228 10.1861C7.6228 10.0325 7.67489 9.90357 7.77905 9.79941C7.88582 9.69264 8.02905 9.63925 8.20874 9.63925C8.38843 9.63925 8.53035 9.69264 8.63452 9.79941C8.74129 9.90357 8.79468 10.0325 8.79468 10.1861C8.79468 10.3372 8.74129 10.4648 8.63452 10.5689C8.53035 10.6731 8.38843 10.7252 8.20874 10.7252C8.02905 10.7252 7.88582 10.6731 7.77905 10.5689C7.67489 10.4648 7.6228 10.3372 7.6228 10.1861Z" fill="#373737"/>
<rect x="0.75" y="0.75" width="14.5" height="14.5" rx="7.25" stroke="#373737" stroke-width="1.5"/>
</svg>
