<svg width="50" height="50" viewBox="0 0 50 50" fill="none" xmlns="http://www.w3.org/2000/svg">
<path d="M48.8758 13.7867C47.1964 18.7483 44.2543 22.9891 40.5026 26.2314C38.2457 20.4844 34.1633 15.5251 28.7848 12.2326C26.9712 11.1191 25.0139 10.1971 22.9272 9.50271C22.1821 9.24888 21.4154 9.02618 20.6392 8.83461C15.5601 7.58223 10.4595 7.76901 5.76862 9.13633C6.50412 8.72686 7.3067 8.39161 8.16679 8.14257L25.8117 3.03487L34.6952 0.463058C35.3253 0.281068 35.9506 0.154154 36.5711 0.0799212C36.5759 0.0775266 36.5759 0.0751315 36.5783 0.0775261C44.1082 -0.810874 50.6151 6.07123 48.8758 13.7867Z" fill="url(#paint0_linear_293_628)"/>
<path d="M20.6392 8.83236C21.4154 9.02392 22.182 9.24662 22.9271 9.50045C20.4164 12.6398 18.5309 16.3634 17.5055 20.5228C16.4729 24.711 16.4178 28.9159 17.1988 32.8886C17.5606 34.7396 18.1068 36.5452 18.8184 38.2741C20.2247 41.7008 22.2851 44.8377 24.8893 47.4885C24.3742 47.1317 23.8759 46.7318 23.4015 46.2745L16.7317 39.8713L3.48302 27.1487C2.9272 26.6195 2.44565 26.052 2.02879 25.4581C-1.80685 20.0176 -0.00762297 12.3381 5.77338 9.13408C10.4571 7.76675 15.5601 7.58237 20.6392 8.83236Z" fill="url(#paint1_linear_293_628)"/>
<path d="M48.8757 13.7867C48.8614 13.8634 48.8422 13.9424 48.8206 14.0214L42.2107 40.8267C42.1867 40.9272 42.1604 41.0278 42.134 41.1236C42.1364 41.1284 42.1364 41.1308 42.1316 41.1332C40.0449 48.7169 31.1278 51.7581 24.8916 47.4957C24.8892 47.4957 24.8892 47.4957 24.8869 47.4909C22.285 44.84 20.2223 41.7031 18.816 38.2764C18.1044 36.5475 17.5582 34.7444 17.1964 32.8909C19.3406 33.2382 21.4777 33.3291 23.5716 33.1927C29.882 32.7832 35.8212 30.2856 40.5001 26.2339C44.2543 22.9892 47.1963 18.7484 48.8757 13.7867Z" fill="url(#paint2_linear_293_628)"/>
<defs>
<linearGradient id="paint0_linear_293_628" x1="60.1699" y1="38.0055" x2="13.5653" y2="-5.1381" gradientUnits="userSpaceOnUse">
<stop stop-color="white"/>
<stop offset="0.0245" stop-color="#F7FBFD"/>
<stop offset="0.3053" stop-color="#A1D3EC"/>
<stop offset="0.5529" stop-color="#5CB3DE"/>
<stop offset="0.758" stop-color="#2A9CD4"/>
<stop offset="0.9131" stop-color="#0B8DCE"/>
<stop offset="1" stop-color="#0088CC"/>
</linearGradient>
<linearGradient id="paint1_linear_293_628" x1="8.10763" y1="43.2782" x2="30.0621" y2="-12.9739" gradientUnits="userSpaceOnUse">
<stop stop-color="#0088CC"/>
<stop offset="0.0869" stop-color="#0B8DCE"/>
<stop offset="0.242" stop-color="#2A9CD4"/>
<stop offset="0.4471" stop-color="#5CB3DE"/>
<stop offset="0.6947" stop-color="#A1D3EC"/>
<stop offset="0.9755" stop-color="#F7FBFD"/>
<stop offset="1" stop-color="white"/>
</linearGradient>
<linearGradient id="paint2_linear_293_628" x1="53.4324" y1="34.6733" x2="-6.58864" y2="21.5373" gradientUnits="userSpaceOnUse">
<stop stop-color="#0088CC"/>
<stop offset="0.0869" stop-color="#0B8DCE"/>
<stop offset="0.242" stop-color="#2A9CD4"/>
<stop offset="0.4471" stop-color="#5CB3DE"/>
<stop offset="0.6947" stop-color="#A1D3EC"/>
<stop offset="0.9755" stop-color="#F7FBFD"/>
<stop offset="1" stop-color="white"/>
</linearGradient>
</defs>
</svg>
