<svg width="18" height="16" viewBox="0 0 18 16" fill="none" xmlns="http://www.w3.org/2000/svg">
<path fill-rule="evenodd" clip-rule="evenodd" d="M3.12626 6.95685C3.96674 6.51333 4.78383 6.07468 5.60989 5.65372C5.74877 5.58299 5.93127 5.54973 6.08542 5.56812C6.33409 5.59776 6.50603 5.80871 6.54058 6.04425C6.58028 6.31477 6.47252 6.54426 6.22048 6.67849C5.5053 7.0594 4.78665 7.43377 4.06929 7.81056C3.64214 8.0349 3.21597 8.26116 2.78728 8.48262C2.39175 8.68693 2.08152 8.59008 1.87304 8.19608C1.27702 7.06981 0.682532 5.94264 0.0893816 4.81477C-0.0872698 4.47882 0.00467413 4.12804 0.305586 3.96492C0.615073 3.79715 0.961734 3.91952 1.14413 4.26623C1.42061 4.79178 1.69332 5.3193 1.96826 5.84559C1.99567 5.89803 2.02749 5.94819 2.07081 6.02273C2.14977 5.77441 2.21113 5.54899 2.29232 5.33105C3.36249 2.45828 5.43958 0.748372 8.41698 0.163797C10.6422 -0.273073 12.7362 0.157453 14.5555 1.53354C16.7645 3.20439 17.933 5.44178 17.8248 8.2457C17.6929 11.667 15.3538 14.8007 12.0078 15.6963C9.53314 16.3586 7.22478 15.9357 5.12647 14.4464C4.82933 14.2355 4.76608 13.8721 4.96479 13.5986C5.16608 13.3215 5.51809 13.2682 5.81876 13.4842C6.74548 14.1499 7.76529 14.5922 8.90069 14.727C11.6373 15.052 13.8661 14.1188 15.4025 11.8352C17.0027 9.45678 17.1406 6.93499 15.6363 4.43986C14.5856 2.69709 13.024 1.62459 10.996 1.28888C7.59201 0.725374 3.78697 2.83751 3.12314 6.87858C3.12021 6.89628 3.12433 6.91511 3.12626 6.95685Z" fill="#373737"/>
<path d="M10.5454 8.36361V4.72725" stroke="#373737" stroke-width="1.2"/>
<path d="M10.9091 8L7.27271 8" stroke="#373737" stroke-width="1.2"/>
</svg>
