<svg version="1.1" id="Layer_1" xmlns="http://www.w3.org/2000/svg" xmlns:xlink="http://www.w3.org/1999/xlink" x="0px" y="0px"
	 viewBox="0 0 1000 280" style="enable-background:new 0 0 1000 376;" xml:space="preserve">
<style type="text/css">
	.st0{fill:#0088CC;}
	.st1{fill:#1C1C1C;}
	.st2{fill:#FFFFFF;}
	.st3{fill:url(#SVGID_1_);}
	.st4{fill:url(#SVGID_00000060733219383002774770000010401790017878266270_);}
	.st5{fill:url(#SVGID_00000023262971596592542710000015520442508039956148_);}
	.st6{fill:url(#SVGID_00000101798836851571504160000002821456846509144995_);}
	.st7{fill:url(#SVGID_00000168809027497462655180000003674139358989600433_);}
	.st8{fill:url(#SVGID_00000044172478975468875180000010879385208690559154_);}
	.st9{fill:url(#SVGID_00000152231876065425660930000011965149699926798503_);}
	.st10{fill:url(#SVGID_00000068671139386318223500000010910576002794955929_);}
	.st11{fill:url(#SVGID_00000024691161751059636320000002403880524611879580_);}
	.st12{fill:url(#SVGID_00000098929000292408803830000005365125482637468054_);}
	.st13{fill:url(#SVGID_00000068644876670643507930000005814935225733079443_);}
	.st14{fill:url(#SVGID_00000047749373424218307010000015297269855814690438_);}
	.st15{fill:url(#SVGID_00000169551507533888008590000010533218474680822452_);}
	.st16{fill:url(#SVGID_00000158727494103694630540000013357373741193906073_);}
	.st17{fill:url(#SVGID_00000169559050459942727700000000819886502953446839_);}
	.st18{fill:url(#SVGID_00000137815924734315358650000014045640197378882436_);}
	.st19{fill:url(#SVGID_00000036931893109996588780000008665746645385803708_);}
	.st20{fill:url(#SVGID_00000091733096663378398250000013114339088602150282_);}
	.st21{fill:url(#SVGID_00000104696809277993814410000016480213422763019908_);}
	.st22{fill:url(#SVGID_00000155134549323087920510000000513296222275374223_);}
	.st23{fill:#303030;}
	.st24{fill:url(#SVGID_00000169545700032883249560000008959550794428320698_);}
	.st25{fill:url(#SVGID_00000078021916502500513210000010451606951702493370_);}
	.st26{fill:url(#SVGID_00000022525188396089878890000010160524142975838387_);}
</style>
<g>
	<linearGradient id="SVGID_1_" gradientUnits="userSpaceOnUse" x1="326.0183" y1="232.9111" x2="957.6527" y2="129.9487">
		<stop  offset="0" style="stop-color:#34ACE0"/>
		<stop  offset="0.4307" style="stop-color:#209ED8"/>
		<stop  offset="1" style="stop-color:#0088CC"/>
	</linearGradient>
	<path class="st3" d="M420.79,154.95l-20.12,70.33l-19.14,0.11l-13.09-48.97l-12.51,49.12l-19.26,0.11l-21.07-70.09l18-0.1
		l12.73,53.41l13.12-53.56l18.76-0.11l13.49,53.28l12.11-53.43L420.79,154.95z M484.17,157.05c4.15,2.3,7.4,5.7,9.76,10.21
		c2.35,4.51,3.54,9.93,3.58,16.27l0.24,41.19l-17.74,0.1l-0.23-38.78c-0.03-5.58-1.45-9.86-4.26-12.84
		c-2.81-2.98-6.62-4.46-11.43-4.43c-4.9,0.03-8.76,1.55-11.57,4.57c-2.81,3.02-4.2,7.31-4.17,12.89l0.23,38.78l-17.74,0.1
		l-0.55-93.79l17.74-0.1l0.19,32.32c2.26-3.05,5.29-5.46,9.08-7.21c3.79-1.76,8.01-2.65,12.66-2.67
		C475.28,153.62,480.02,154.75,484.17,157.05z M515.33,143.06c-2.08-1.97-3.13-4.44-3.15-7.4s1-5.43,3.06-7.43
		c2.06-1.99,4.65-3,7.78-3.02c3.12-0.02,5.73,0.96,7.81,2.93c2.08,1.98,3.13,4.44,3.15,7.4s-1,5.44-3.06,7.43
		c-2.06,2-4.65,3.01-7.78,3.02C520.02,146.01,517.41,145.03,515.33,143.06z M531.94,154.3l0.41,70.21l-17.74,0.1l-0.41-70.21
		L531.94,154.3z M570.17,168.65l0.2,33.97c0.01,2.37,0.59,4.07,1.74,5.12c1.15,1.05,3.07,1.56,5.78,1.55l8.24-0.05l0.09,14.96
		l-11.15,0.07c-14.96,0.09-22.48-7.14-22.56-21.67l-0.2-33.84l-8.37,0.05l-0.09-14.57l8.37-0.05l-0.1-17.36l17.87-0.1l0.1,17.36
		l15.72-0.09l0.09,14.57L570.17,168.65z M663.6,193.97l-51.33,0.3c0.45,5.07,2.25,9.03,5.39,11.88c3.14,2.85,7,4.27,11.56,4.24
		c6.59-0.04,11.26-2.89,14.02-8.57l19.14-0.11c-1.99,6.77-5.84,12.35-11.56,16.73c-5.72,4.39-12.76,6.6-21.13,6.65
		c-6.76,0.04-12.83-1.42-18.21-4.39c-5.39-2.96-9.59-7.19-12.62-12.66c-3.03-5.47-4.57-11.8-4.61-18.98
		c-0.04-7.27,1.4-13.65,4.32-19.16c2.92-5.51,7.04-9.76,12.35-12.75c5.31-2.99,11.42-4.51,18.35-4.55
		c6.67-0.04,12.66,1.36,17.96,4.2c5.3,2.84,9.42,6.9,12.37,12.16c2.95,5.26,4.44,11.32,4.48,18.16
		C664.09,189.65,663.93,191.94,663.6,193.97z M645.66,182.16c-0.11-4.56-1.78-8.21-5.01-10.94c-3.23-2.72-7.16-4.08-11.81-4.05
		c-4.39,0.03-8.08,1.38-11.07,4.06c-2.98,2.68-4.8,6.39-5.45,11.12L645.66,182.16z M703.49,155.45c3.66-2.13,7.86-3.21,12.59-3.24
		l0.11,18.63l-4.69,0.03c-5.58,0.03-9.77,1.37-12.59,4c-2.82,2.64-4.2,7.21-4.17,13.71l0.21,34.98l-17.74,0.1l-0.41-70.21l17.74-0.1
		l0.06,10.9C696.87,160.52,699.83,157.59,703.49,155.45z M741.32,219.93c-5.43-2.97-9.7-7.19-12.81-12.66
		c-3.12-5.47-4.7-11.8-4.74-18.98c-0.04-7.18,1.51-13.53,4.64-19.04c3.13-5.51,7.44-9.78,12.91-12.81
		c5.47-3.03,11.59-4.57,18.35-4.61c6.76-0.04,12.89,1.42,18.4,4.39c5.51,2.97,9.86,7.19,13.07,12.66c3.2,5.48,4.82,11.8,4.86,18.98
		c0.04,7.18-1.55,13.53-4.77,19.04c-3.22,5.51-7.59,9.78-13.11,12.81c-5.52,3.03-11.7,4.57-18.54,4.61
		C752.84,224.37,746.75,222.9,741.32,219.93z M768.56,206.47c2.82-1.58,5.07-3.94,6.74-7.07c1.67-3.14,2.5-6.94,2.47-11.42
		c-0.04-6.67-1.82-11.8-5.35-15.37c-3.53-3.57-7.83-5.34-12.9-5.31c-5.07,0.03-9.3,1.85-12.71,5.46c-3.4,3.61-5.08,8.76-5.04,15.43
		c0.04,6.68,1.74,11.8,5.1,15.37c3.36,3.57,7.57,5.34,12.64,5.31C762.72,208.84,765.73,208.05,768.56,206.47z M822.18,219.46
		c-5.43-2.97-9.7-7.19-12.81-12.66c-3.12-5.47-4.7-11.8-4.74-18.98c-0.04-7.18,1.51-13.53,4.64-19.04
		c3.14-5.51,7.44-9.78,12.92-12.81c5.47-3.03,11.59-4.57,18.35-4.61c6.76-0.04,12.89,1.43,18.41,4.39
		c5.51,2.97,9.87,7.19,13.07,12.66c3.2,5.48,4.82,11.8,4.86,18.98c0.04,7.18-1.55,13.53-4.77,19.04
		c-3.22,5.51-7.59,9.79-13.11,12.82c-5.52,3.03-11.7,4.57-18.54,4.61C833.7,223.89,827.61,222.43,822.18,219.46z M849.42,205.99
		c2.82-1.58,5.07-3.94,6.74-7.07c1.67-3.14,2.5-6.94,2.47-11.42c-0.04-6.67-1.82-11.8-5.35-15.37c-3.53-3.57-7.83-5.34-12.9-5.31
		c-5.07,0.03-9.3,1.85-12.71,5.46c-3.4,3.61-5.08,8.76-5.04,15.43c0.04,6.68,1.74,11.8,5.1,15.37c3.36,3.57,7.57,5.34,12.64,5.31
		C843.58,208.37,846.59,207.57,849.42,205.99z M922,166.59l-12.3,0.07l0.33,55.64l-18,0.11l-0.33-55.64l-7.99,0.05l-0.08-14.57
		l7.99-0.05l-0.02-3.55c-0.05-8.62,2.36-14.97,7.24-19.05c4.87-4.09,12.26-6.03,22.15-5.83l0.09,14.96
		c-4.31-0.06-7.31,0.68-8.99,2.21c-1.68,1.53-2.51,4.28-2.49,8.26l0.02,2.91l12.3-0.07L922,166.59z"/>
	<g>
		
			<linearGradient id="SVGID_00000022519257587416148540000018088469775975115917_" gradientUnits="userSpaceOnUse" x1="300.3136" y1="237.1251" x2="128.0497" y2="77.7314">
			<stop  offset="0" style="stop-color:#FFFFFF"/>
			<stop  offset="0.0245" style="stop-color:#F7FBFD"/>
			<stop  offset="0.3053" style="stop-color:#A1D3EC"/>
			<stop  offset="0.5529" style="stop-color:#5CB3DE"/>
			<stop  offset="0.758" style="stop-color:#2A9CD4"/>
			<stop  offset="0.9131" style="stop-color:#0B8DCE"/>
			<stop  offset="1" style="stop-color:#0088CC"/>
		</linearGradient>
		<path style="fill:url(#SVGID_00000022519257587416148540000018088469775975115917_);" d="M258.59,147.6
			c-6.2,18.34-17.07,34.02-30.94,46c-8.34-21.24-23.42-39.58-43.3-51.75c-6.7-4.12-13.93-7.52-21.64-10.09
			c-2.75-0.94-5.58-1.76-8.45-2.47c-18.77-4.63-37.61-3.94-54.94,1.11c2.71-1.52,5.68-2.75,8.86-3.68l65.19-18.88l32.82-9.51
			c2.33-0.67,4.64-1.14,6.93-1.42c0.01-0.01,0.02-0.02,0.03-0.01C240.97,93.65,265.01,119.08,258.59,147.6z"/>
		
			<linearGradient id="SVGID_00000132774007670484028700000005703214592682465680_" gradientUnits="userSpaceOnUse" x1="107.9633" y1="256.6145" x2="189.1451" y2="48.7098">
			<stop  offset="0" style="stop-color:#0088CC"/>
			<stop  offset="0.0869" style="stop-color:#0B8DCE"/>
			<stop  offset="0.242" style="stop-color:#2A9CD4"/>
			<stop  offset="0.4471" style="stop-color:#5CB3DE"/>
			<stop  offset="0.6947" style="stop-color:#A1D3EC"/>
			<stop  offset="0.9755" style="stop-color:#F7FBFD"/>
			<stop  offset="1" style="stop-color:#FFFFFF"/>
		</linearGradient>
		<path style="fill:url(#SVGID_00000132774007670484028700000005703214592682465680_);" d="M154.26,129.29
			c2.87,0.71,5.7,1.53,8.45,2.47c-9.27,11.61-16.24,25.37-20.03,40.74c-3.82,15.49-4.02,31.03-1.14,45.71
			c1.33,6.85,3.35,13.51,5.98,19.91c5.19,12.67,12.81,24.26,22.43,34.06c-1.9-1.32-3.74-2.8-5.5-4.49l-24.64-23.67l-48.95-47.02
			c-2.05-1.96-3.83-4.06-5.37-6.25c-14.17-20.11-7.52-48.5,13.83-60.34C116.65,125.35,135.49,124.66,154.26,129.29z"/>
		
			<linearGradient id="SVGID_00000091719577919731128260000011286332226056811949_" gradientUnits="userSpaceOnUse" x1="275.4213" y1="224.8075" x2="53.6562" y2="176.2964">
			<stop  offset="0" style="stop-color:#0088CC"/>
			<stop  offset="0.0869" style="stop-color:#0B8DCE"/>
			<stop  offset="0.242" style="stop-color:#2A9CD4"/>
			<stop  offset="0.4471" style="stop-color:#5CB3DE"/>
			<stop  offset="0.6947" style="stop-color:#A1D3EC"/>
			<stop  offset="0.9755" style="stop-color:#F7FBFD"/>
			<stop  offset="1" style="stop-color:#FFFFFF"/>
		</linearGradient>
		<path style="fill:url(#SVGID_00000091719577919731128260000011286332226056811949_);" d="M258.59,147.6
			c-0.06,0.28-0.13,0.57-0.2,0.86l-24.42,99.08c-0.09,0.38-0.18,0.74-0.28,1.1c0.01,0.02,0.01,0.03-0.01,0.04
			c-7.71,28.04-40.65,39.27-63.7,23.51c-0.01,0-0.01,0-0.02-0.02c-9.62-9.8-17.23-21.39-22.43-34.06
			c-2.63-6.39-4.65-13.06-5.98-19.91c7.92,1.28,15.82,1.62,23.55,1.11c23.32-1.52,45.26-10.75,62.55-25.73
			C241.52,181.62,252.38,165.94,258.59,147.6z"/>
	</g>
</g>
</svg>