<svg width="75" height="128" viewBox="0 0 75 128" fill="none" xmlns="http://www.w3.org/2000/svg">
<g opacity="0.2">
<path fill-rule="evenodd" clip-rule="evenodd" d="M40.1968 77.6763C40.2167 79.0537 39.0711 80.2062 37.697 80.193C36.3229 80.1798 35.1972 79.0007 35.2468 77.6303C35.2932 76.3025 36.4156 75.2264 37.7467 75.2397C39.0711 75.2526 40.1803 76.3519 40.1968 77.6763Z" fill="#00547E"/>
<path fill-rule="evenodd" clip-rule="evenodd" d="M53.8218 94.2415C51.713 93.3078 49.5969 92.3873 47.5043 91.4172C44.5413 90.0434 41.6607 88.5697 39.5482 85.9145C38.5082 84.61 36.8299 84.7355 35.7008 86.0897C34.3565 87.7055 32.7374 88.9243 30.913 89.9471C27.8834 91.6423 24.632 92.8475 21.4931 94.3007C17.2815 96.2513 15.222 99.4531 15.3644 104.112C15.4339 106.396 16.2285 107.261 18.5065 107.264C24.9134 107.267 31.3203 107.264 37.7305 107.264C44.1771 107.264 50.627 107.267 57.0769 107.261C59.1331 107.261 59.9943 106.353 60.08 104.347C60.2883 99.5392 58.2089 96.1851 53.8218 94.2415ZM54.8449 102.112C54.6264 102.556 54.0268 102.284 53.6066 102.287C43.0179 102.3 32.4292 102.297 21.8404 102.297H20.569C20.5425 100.963 21.3471 100.208 22.2775 99.5653C23.5059 98.7177 24.9031 98.1912 26.264 97.6019C30.1247 95.9261 34.035 94.3471 37.303 91.5857C37.6242 91.3142 37.8228 91.3304 38.1377 91.5953C41.5382 94.4564 45.6439 96.0222 49.6304 97.8035C50.723 98.2935 51.7958 98.817 52.855 99.3696C53.4775 99.6974 54.0208 100.158 54.4112 100.757C54.6827 101.172 55.0701 101.662 54.8449 102.112Z" fill="#00547E"/>
<path fill-rule="evenodd" clip-rule="evenodd" d="M60.0896 24.0937C59.8976 21.7959 58.146 20.7032 56.1362 21.819C55.9177 21.9382 55.7091 22.0674 55.4942 22.1932C46.6898 27.2326 37.409 28.3617 27.6612 25.5638C24.7144 24.7162 21.9663 23.4017 19.3273 21.8389C17.5592 20.7893 15.4799 21.6667 15.4236 23.5706C15.3177 27.0737 15.1455 30.5867 16.2712 34.0136C18.4267 40.5794 22.6715 45.5692 27.9195 49.847C29.9392 51.4959 32.3232 52.6283 34.2469 54.4063C34.9588 55.0652 35.3131 55.7606 35.2634 56.7671C35.1773 58.4591 35.2402 60.1576 35.2402 61.8529C35.2402 63.6739 35.2336 65.4917 35.2402 67.3128C35.2502 69.1173 36.1971 70.2497 37.7003 70.2596C39.2035 70.2729 40.1969 69.1339 40.2035 67.3525C40.2134 64.0845 40.3329 60.8099 40.1542 57.5518C40.0581 55.7374 40.7501 54.5785 42.111 53.6216C42.6507 53.2408 43.1834 52.8501 43.7433 52.5025C45.3558 51.4893 46.9054 50.39 48.3556 49.1583C56.0799 42.5925 60.9704 34.7089 60.0896 24.0937ZM52.5736 36.7154C49.875 41.3972 46.0938 45.0427 41.5941 47.973C40.4485 48.718 39.2833 49.4265 38.2765 50.3602C38.0079 50.6119 37.7864 50.9032 37.3523 50.5192C34.9055 48.3471 31.9156 46.9167 29.4886 44.7017C25.4524 41.0264 22.0818 36.924 20.7309 31.4807C20.4627 30.3979 20.274 29.2987 20.3832 28.0968C31.9355 33.3249 43.4844 33.3348 55.0962 28.0835C55.1131 31.282 54.0966 34.0798 52.5736 36.7154Z" fill="#00547E"/>
<path fill-rule="evenodd" clip-rule="evenodd" d="M74.986 123.77C74.8936 122.452 74.9827 121.124 74.9632 119.8C74.9135 116.717 73.5295 114.416 70.7813 113.019C70.1588 112.701 69.98 112.386 69.9867 111.728C70.0198 108.46 69.9936 105.192 70.0032 101.924C70.0102 99.1956 70.086 96.4607 69.6791 93.7523C67.8712 81.7858 61.8551 72.5351 51.6868 65.9825C49.5645 64.6151 49.5741 62.5324 51.6799 61.1451C63.7089 53.2383 69.8642 42.1032 69.9966 27.687C70.0327 23.5912 70.0165 19.4987 69.9867 15.403C69.98 14.7441 70.1555 14.4262 70.778 14.1084C73.5229 12.7111 74.9135 10.4132 74.9635 7.32734C74.9834 6.00293 74.894 4.6752 74.9863 3.3574C75.0923 1.83432 74.5794 0.718497 73.2282 0H2.21586C0.864958 0.718497 0.348435 1.83101 0.4577 3.3574C0.55372 4.6752 0.461013 6.00293 0.48088 7.32734C0.527234 10.4132 1.92119 12.7078 4.66273 14.1084C5.28521 14.4262 5.464 14.7408 5.45738 15.3997C5.43089 19.8265 5.42758 24.2534 5.45076 28.677C5.47725 34.0375 6.60631 39.1697 8.80816 44.0501C12.0629 51.255 17.0825 56.9301 23.7608 61.1451C25.4197 62.1947 25.8336 63.9396 24.7177 65.2143C24.3734 65.6084 23.89 65.8865 23.4463 66.1845C11.7748 73.9919 5.70902 84.8853 5.45407 98.9473C5.37791 103.209 5.42758 107.47 5.46069 111.728C5.464 112.39 5.27858 112.701 4.66273 113.019C1.91787 114.42 0.523923 116.714 0.48088 119.8C0.461013 121.125 0.55372 122.456 0.4577 123.77C0.348435 125.296 0.868269 126.405 2.21586 127.128H73.2279C74.5688 126.402 75.0953 125.296 74.986 123.77ZM8.68896 9.92916C6.04675 9.92916 4.57333 7.79685 5.44413 5.27383C5.63948 4.70433 6.07323 4.98246 6.37454 4.97915C11.2981 4.95928 16.2216 4.96591 21.1451 4.96591H37.7762C48.1166 4.96591 58.4606 4.97584 68.8006 4.94604C69.7277 4.94273 70.1847 5.1149 70.0092 6.12808C69.9493 6.48899 70.0092 6.87307 69.9992 7.2439C69.9496 8.94578 68.9894 9.91592 67.2676 9.92585C63.5427 9.94572 59.8211 9.93247 56.0962 9.93247C40.2962 9.93247 24.4926 9.93247 8.68896 9.92916ZM10.6325 95.3508C11.5861 85.8014 16.013 78.1297 23.5191 72.2129C24.6217 71.3457 25.8203 70.6008 26.9726 69.8028C31.4127 66.7232 31.4689 60.2802 26.9361 57.34C21.4431 53.774 16.9633 49.3339 13.9933 43.4568C11.7815 39.0796 10.5531 34.4309 10.4504 29.5306C10.3511 24.9812 10.4405 20.4285 10.3875 15.8791C10.3776 15.0381 10.6359 14.8792 11.4206 14.8792C20.1915 14.9057 28.9625 14.8957 37.7334 14.8957C46.4647 14.8957 55.1959 14.9156 63.9241 14.8726C64.8708 14.8659 65.0698 15.1143 65.0598 16.0248C65.0035 20.1206 65.0996 24.2196 65.0234 28.3121C64.7883 40.4471 59.5771 49.8935 49.488 56.6182C47.6073 57.8731 46.0183 59.2836 45.4253 61.5517C44.5413 64.9389 45.7793 68.0777 48.9085 70.0842C52.3851 72.3192 55.4744 74.9647 58.0043 78.2393C62.3845 83.9045 64.7555 90.328 64.9837 97.4732C65.1327 102.102 65.0102 106.741 65.0532 111.373C65.0602 112.098 64.8281 112.244 64.1496 112.244C46.5249 112.227 28.8969 112.231 11.2722 112.231C10.8286 112.231 10.3783 112.353 10.3981 111.598C10.5299 106.181 10.0928 100.751 10.6325 95.3508ZM69.993 121.852C69.784 122.442 69.291 122.147 68.943 122.147C63.8543 122.167 58.7652 122.161 53.6761 122.161H37.6672C27.3235 122.161 16.9831 122.151 6.63976 122.184C5.70604 122.187 5.26898 122.001 5.43453 120.995C5.50075 120.591 5.43122 120.167 5.44778 119.757C5.51731 118.207 6.48414 117.26 8.05357 117.197C8.25886 117.191 8.46745 117.197 8.67274 117.197C28.0357 117.197 47.3954 117.194 66.7584 117.197C69.3937 117.197 70.8836 119.343 69.993 121.852Z" fill="#00547E"/>
<path fill-rule="evenodd" clip-rule="evenodd" d="M40.1968 77.6763C40.2167 79.0537 39.0711 80.2062 37.697 80.193C36.3229 80.1798 35.1972 79.0007 35.2468 77.6303C35.2932 76.3025 36.4156 75.2264 37.7467 75.2397C39.0711 75.2526 40.1803 76.3519 40.1968 77.6763Z" fill="#FEFEFE"/>
<path fill-rule="evenodd" clip-rule="evenodd" d="M53.8218 94.2415C51.713 93.3078 49.5969 92.3873 47.5043 91.4172C44.5413 90.0434 41.6607 88.5697 39.5482 85.9145C38.5082 84.61 36.8299 84.7355 35.7008 86.0897C34.3565 87.7055 32.7374 88.9243 30.913 89.9471C27.8834 91.6423 24.632 92.8475 21.4931 94.3007C17.2815 96.2513 15.222 99.4531 15.3644 104.112C15.4339 106.396 16.2285 107.261 18.5065 107.264C24.9134 107.267 31.3203 107.264 37.7305 107.264C44.1771 107.264 50.627 107.267 57.0769 107.261C59.1331 107.261 59.9943 106.353 60.08 104.347C60.2883 99.5392 58.2089 96.1851 53.8218 94.2415ZM54.8449 102.112C54.6264 102.556 54.0268 102.284 53.6066 102.287C43.0179 102.3 32.4292 102.297 21.8404 102.297H20.569C20.5425 100.963 21.3471 100.208 22.2775 99.5653C23.5059 98.7177 24.9031 98.1912 26.264 97.6019C30.1247 95.9261 34.035 94.3471 37.303 91.5857C37.6242 91.3142 37.8228 91.3304 38.1377 91.5953C41.5382 94.4564 45.6439 96.0222 49.6304 97.8035C50.723 98.2935 51.7958 98.817 52.855 99.3696C53.4775 99.6974 54.0208 100.158 54.4112 100.757C54.6827 101.172 55.0701 101.662 54.8449 102.112Z" fill="#FEFEFE"/>
<path fill-rule="evenodd" clip-rule="evenodd" d="M60.0896 24.0937C59.8976 21.7959 58.146 20.7032 56.1362 21.819C55.9177 21.9382 55.7091 22.0674 55.4942 22.1932C46.6898 27.2326 37.409 28.3617 27.6612 25.5638C24.7144 24.7162 21.9663 23.4017 19.3273 21.8389C17.5592 20.7893 15.4799 21.6667 15.4236 23.5706C15.3177 27.0737 15.1455 30.5867 16.2712 34.0136C18.4267 40.5794 22.6715 45.5692 27.9195 49.847C29.9392 51.4959 32.3232 52.6283 34.2469 54.4063C34.9588 55.0652 35.3131 55.7606 35.2634 56.7671C35.1773 58.4591 35.2402 60.1576 35.2402 61.8529C35.2402 63.6739 35.2336 65.4917 35.2402 67.3128C35.2502 69.1173 36.1971 70.2497 37.7003 70.2596C39.2035 70.2729 40.1969 69.1339 40.2035 67.3525C40.2134 64.0845 40.3329 60.8099 40.1542 57.5518C40.0581 55.7374 40.7501 54.5785 42.111 53.6216C42.6507 53.2408 43.1834 52.8501 43.7433 52.5025C45.3558 51.4893 46.9054 50.39 48.3556 49.1583C56.0799 42.5925 60.9704 34.7089 60.0896 24.0937ZM52.5736 36.7154C49.875 41.3972 46.0938 45.0427 41.5941 47.973C40.4485 48.718 39.2833 49.4265 38.2765 50.3602C38.0079 50.6119 37.7864 50.9032 37.3523 50.5192C34.9055 48.3471 31.9156 46.9167 29.4886 44.7017C25.4524 41.0264 22.0818 36.924 20.7309 31.4807C20.4627 30.3979 20.274 29.2987 20.3832 28.0968C31.9355 33.3249 43.4844 33.3348 55.0962 28.0835C55.1131 31.282 54.0966 34.0798 52.5736 36.7154Z" fill="#FEFEFE"/>
<path fill-rule="evenodd" clip-rule="evenodd" d="M60.0896 24.0937C59.8976 21.7959 58.146 20.7032 56.1362 21.819C55.9177 21.9382 55.7091 22.0674 55.4942 22.1932C46.6898 27.2326 37.409 28.3617 27.6612 25.5638C24.7144 24.7162 21.9663 23.4017 19.3273 21.8389C17.5592 20.7893 15.4799 21.6667 15.4236 23.5706C15.3177 27.0737 15.1455 30.5867 16.2712 34.0136C18.4267 40.5794 22.6715 45.5692 27.9195 49.847C29.9392 51.4959 32.3232 52.6283 34.2469 54.4063C34.9588 55.0652 35.3131 55.7606 35.2634 56.7671C35.1773 58.4591 35.2402 60.1576 35.2402 61.8529C35.2402 63.6739 35.2336 65.4917 35.2402 67.3128C35.2502 69.1173 36.1971 70.2497 37.7003 70.2596C39.2035 70.2729 40.1969 69.1339 40.2035 67.3525C40.2134 64.0845 40.3329 60.8099 40.1542 57.5518C40.0581 55.7374 40.7501 54.5785 42.111 53.6216C42.6507 53.2408 43.1834 52.8501 43.7433 52.5025C45.3558 51.4893 46.9054 50.39 48.3556 49.1583C56.0799 42.5925 60.9704 34.7089 60.0896 24.0937ZM52.5736 36.7154C49.875 41.3972 46.0938 45.0427 41.5941 47.973C40.4485 48.718 39.2833 49.4265 38.2765 50.3602C38.0079 50.6119 37.7864 50.9032 37.3523 50.5192C34.9055 48.3471 31.9156 46.9167 29.4886 44.7017C25.4524 41.0264 22.0818 36.924 20.7309 31.4807C20.4627 30.3979 20.274 29.2987 20.3832 28.0968C31.9355 33.3249 43.4844 33.3348 55.0962 28.0835C55.1131 31.282 54.0966 34.0798 52.5736 36.7154Z" fill="#00547E"/>
<path fill-rule="evenodd" clip-rule="evenodd" d="M53.8218 94.2415C51.713 93.3078 49.5969 92.3873 47.5043 91.4172C44.5413 90.0434 41.6607 88.5697 39.5482 85.9145C38.5082 84.61 36.8299 84.7355 35.7008 86.0897C34.3565 87.7055 32.7374 88.9243 30.913 89.9471C27.8834 91.6423 24.632 92.8475 21.4931 94.3007C17.2815 96.2513 15.222 99.4531 15.3644 104.112C15.4339 106.396 16.2285 107.261 18.5065 107.264C24.9134 107.267 31.3203 107.264 37.7305 107.264C44.1771 107.264 50.627 107.267 57.0769 107.261C59.1331 107.261 59.9943 106.353 60.08 104.347C60.2883 99.5392 58.2089 96.1851 53.8218 94.2415ZM54.8449 102.112C54.6264 102.556 54.0268 102.284 53.6066 102.287C43.0179 102.3 32.4292 102.297 21.8404 102.297H20.569C20.5425 100.963 21.3471 100.208 22.2775 99.5653C23.5059 98.7177 24.9031 98.1912 26.264 97.6019C30.1247 95.9261 34.035 94.3471 37.303 91.5857C37.6242 91.3142 37.8228 91.3304 38.1377 91.5953C41.5382 94.4564 45.6439 96.0222 49.6304 97.8035C50.723 98.2935 51.7958 98.817 52.855 99.3696C53.4775 99.6974 54.0208 100.158 54.4112 100.757C54.6827 101.172 55.0701 101.662 54.8449 102.112Z" fill="#00547E"/>
<path fill-rule="evenodd" clip-rule="evenodd" d="M40.1968 77.6763C40.2167 79.0537 39.0711 80.2062 37.697 80.193C36.3229 80.1798 35.1972 79.0007 35.2468 77.6303C35.2932 76.3025 36.4156 75.2264 37.7467 75.2397C39.0711 75.2526 40.1803 76.3519 40.1968 77.6763Z" fill="#00547E"/>
</g>
</svg>
