<svg width="433" height="445" viewBox="0 0 433 445" fill="none" xmlns="http://www.w3.org/2000/svg">
<path d="M89.8003 185.527C103.728 124.296 167.405 87.534 227.182 106.766C228.388 107.146 229.594 107.559 230.816 107.972C308.966 134.837 283.324 214.209 322.398 238.629C361.473 263.048 389.561 298.455 372.46 344.866C355.36 391.26 251.568 435.225 169.751 385.163C105.463 345.807 72.0886 263.445 89.8003 185.527Z" stroke="#BFD9FF" stroke-width="1.1086" stroke-miterlimit="10"/>
<path d="M108.076 112.934C112.498 85.3008 93.681 59.3149 66.0476 54.8931C38.4141 50.4713 12.4282 69.288 8.00638 96.9215C3.58458 124.555 22.4013 150.541 50.0348 154.963C77.6683 159.384 103.654 140.568 108.076 112.934Z" stroke="#BFD9FF" stroke-width="1.1086" stroke-miterlimit="10"/>
<path d="M301.746 333.879H124.513C120.531 333.879 117.871 329.781 119.491 326.146L245.24 44.0644C246.116 42.0818 248.082 40.8096 250.263 40.8096H427.495C431.477 40.8096 434.137 44.907 432.518 48.5419L306.769 330.624C305.876 332.606 303.91 333.879 301.746 333.879Z" fill="url(#paint0_linear_47_180)"/>
<path d="M355.459 134.919L412.659 6.62536C414.047 3.51921 411.766 0 408.363 0H247.867C241.919 0 236.517 3.50268 234.088 8.93846L176.029 139.182C174.641 142.288 176.921 145.808 180.325 145.808H338.673C345.926 145.808 352.502 141.545 355.459 134.919Z" fill="white"/>
<path d="M334.707 222.834L391.907 94.5394C393.295 91.4333 391.015 87.9141 387.611 87.9141H227.116C221.168 87.9141 215.765 91.4167 213.336 96.8525L155.277 227.096C153.89 230.202 156.17 233.722 159.573 233.722H317.921C325.174 233.722 331.75 229.459 334.707 222.834Z" stroke="white" stroke-width="1.1086" stroke-miterlimit="10"/>
<path opacity="0.39" d="M261.96 177.513H269.28L249.602 215.977H130.544L135.352 206.576" stroke="#A1C2FF" stroke-width="0.5543" stroke-miterlimit="10"/>
<path d="M275.84 70.9645C290.926 57.8872 295.19 38.0971 285.364 26.7621C275.538 15.4271 255.343 16.8395 240.258 29.9167C225.172 42.994 220.908 62.7841 230.734 74.1191C240.56 85.4541 260.755 84.0417 275.84 70.9645Z" fill="#E6F4FF"/>
<path d="M273.74 68.5416C287.047 57.0064 290.809 39.5507 282.143 29.5533C273.476 19.5558 255.663 20.8025 242.356 32.3377C229.049 43.873 225.288 61.3286 233.954 71.3261C242.62 81.3235 260.433 80.0769 273.74 68.5416Z" fill="#94C3FF"/>
<path d="M258.557 55.9768C258.557 55.9768 244.034 58.3725 237.822 60.8178C233.609 63.3622 232.948 65.3779 231.94 68.4014C231.94 68.4014 231.924 68.4179 231.924 68.4345C235.294 74.3329 241.721 78.0834 250.114 78.0834C260.953 78.0834 272.105 71.8215 279.243 62.7343C275.377 57.0507 258.557 55.9768 258.557 55.9768Z" fill="url(#paint1_linear_47_180)"/>
<path d="M253.452 49.7973L250.941 60.3714C250.627 61.6932 251.287 62.8002 252.543 62.9985C254.509 63.3124 257.632 63.2959 260.953 61.1645C261.961 60.5201 262.638 59.4297 262.704 58.4053C263.051 53.4652 264.059 43.3372 264.059 43.3372L253.452 49.7973Z" fill="#FF8D68"/>
<path d="M251.188 38.5787C251.188 38.5787 244.365 52.3912 245.686 56.1086C247.223 58.6365 260.936 52.9529 263.183 49.252C265.43 45.551 270.585 38.843 266.57 34.6464C262.572 30.4498 256.36 31.8872 251.188 38.5787Z" fill="#FF8D68"/>
<path d="M251.188 38.5789C251.188 38.5789 249.982 33.7049 254.113 30.8301C258.243 27.9552 263.547 28.5335 265.447 31.4083C267.347 34.2832 267.512 34.7128 267.512 34.7128C267.512 34.7128 269.544 35.1423 270.222 37.3067C270.899 39.4711 266.603 44.9234 264.852 46.5095C263.101 48.0957 263.464 48.1287 263.464 48.1287L262.886 47.3687C262.886 47.3687 263.216 43.2051 264.059 40.7599C264.29 39.4711 262.803 37.6041 260.209 37.1746C257.615 36.7285 256.657 39.1572 251.188 38.5789Z" fill="#7E3636"/>
<path d="M264.489 44.8739C264.489 44.8739 265.43 43.1061 267.132 43.6183C268.817 44.18 265.463 49.4506 263.679 49.0871C261.977 48.641 264.489 44.8739 264.489 44.8739Z" fill="#FF8D68"/>
<path d="M262.836 56.4229C262.836 56.4229 259.185 60.4542 255.6 61.5943C254.972 61.7925 254.03 63.0317 254.03 63.0317L253.369 61.3134C253.369 61.3134 250.907 59.876 251.618 57.3811L251.122 57.7611L249.8 61.016C249.8 61.016 248.826 64.0891 248.875 65.2291L252.18 63.4117C252.18 63.4117 254.195 64.0891 255.798 63.5108C255.798 63.5108 256.475 65.8074 257.103 66.0057C257.715 66.2039 262.704 61.4951 263.464 59.876C264.307 58.2403 264.109 56.6211 264.109 56.6211L262.836 56.4229Z" fill="white"/>
<path opacity="0.39" d="M368.099 62.5032H298.574C296.442 62.5032 295.335 60.7684 296.112 58.6371L305.959 31.6069C306.735 29.4755 309.098 27.7407 311.229 27.7407H380.755C382.886 27.7407 383.993 29.4755 383.216 31.6069L373.369 58.6371C372.593 60.7684 370.23 62.5032 368.099 62.5032Z" fill="#A1C2FF"/>
<path d="M372.114 39.9671H312.254L313.311 37.0757H373.171L372.114 39.9671Z" fill="url(#paint2_linear_47_180)"/>
<path d="M345.843 46.7246H309.792L310.85 43.8333H346.901L345.843 46.7246Z" fill="#94C3FF"/>
<path d="M316.897 52.8377H307.562L308.619 49.9463H317.954L316.897 52.8377Z" fill="#94C3FF"/>
<path d="M301.795 74.9278C300.821 77.3235 298.094 79.2731 295.682 79.2731C293.286 79.2731 292.113 77.3235 293.088 74.9278C294.063 72.5321 296.789 70.5825 299.201 70.5825C301.614 70.5825 302.77 72.5321 301.795 74.9278Z" fill="#94C3FF"/>
<path d="M316.913 74.9278C315.938 77.3235 313.212 79.2731 310.8 79.2731C308.388 79.2731 307.231 77.3235 308.206 74.9278C309.181 72.5321 311.907 70.5825 314.319 70.5825C316.715 70.5825 317.888 72.5321 316.913 74.9278Z" fill="#94C3FF"/>
<path d="M332.014 74.9278C331.039 77.3235 328.313 79.2731 325.901 79.2731C323.505 79.2731 322.332 77.3235 323.307 74.9278C324.282 72.5321 327.008 70.5825 329.42 70.5825C331.832 70.5825 332.989 72.5321 332.014 74.9278Z" fill="#94C3FF"/>
<path d="M347.132 74.9278C346.157 77.3235 343.431 79.2731 341.019 79.2731C338.623 79.2731 337.45 77.3235 338.425 74.9278C339.4 72.5321 342.126 70.5825 344.538 70.5825C346.95 70.5825 348.107 72.5321 347.132 74.9278Z" fill="#FF8D02"/>
<path opacity="0.39" d="M362.25 74.9278C361.275 77.3235 358.549 79.2731 356.136 79.2731C353.741 79.2731 352.568 77.3235 353.543 74.9278C354.517 72.5321 357.243 70.5825 359.656 70.5825C362.051 70.5825 363.208 72.5321 362.25 74.9278Z" fill="#A1C2FF"/>
<path opacity="0.39" d="M326.347 88.1624L307.165 108.088L287.289 115.969L309.809 132.508L332.444 113.193L326.347 88.1624Z" fill="#A1C2FF"/>
<path opacity="0.7" d="M321.787 99.7441L307.165 108.088L294.773 115.919L311.56 127.98L327.438 113.474L321.787 99.7441Z" fill="#A1C2FF"/>
<path d="M326.347 88.1624L307.165 108.088L287.289 115.969L309.742 132.673L332.444 113.193L326.347 88.1624Z" stroke="#4361C4" stroke-width="0.2806" stroke-miterlimit="10"/>
<path d="M317.326 115.044C317.012 115.804 316.136 116.431 315.376 116.431C314.616 116.431 314.236 115.804 314.55 115.044C314.864 114.284 315.74 113.656 316.5 113.656C317.276 113.656 317.64 114.284 317.326 115.044Z" fill="#4361C4"/>
<path d="M298.474 101.297L315.443 114.73L285.141 116.283" stroke="#4361C4" stroke-width="0.2806" stroke-miterlimit="10"/>
<path d="M308.487 137.299L316.07 114.73L336.046 112.73" stroke="#4361C4" stroke-width="0.2806" stroke-miterlimit="10"/>
<path d="M327.471 85.3699L316.07 114.73" stroke="#4361C4" stroke-width="0.2806" stroke-miterlimit="10"/>
<path d="M300.011 101.033C299.482 102.322 298.028 103.363 296.739 103.363C295.451 103.363 294.823 102.322 295.352 101.033C295.88 99.7443 297.334 98.7034 298.623 98.7034C299.912 98.7034 300.539 99.7443 300.011 101.033Z" fill="#94C3FF"/>
<path d="M286.281 116.299C285.752 117.588 284.298 118.629 283.01 118.629C281.721 118.629 281.093 117.588 281.622 116.299C282.15 115.011 283.604 113.97 284.893 113.97C286.165 113.97 286.793 115.011 286.281 116.299Z" fill="#FF8D02"/>
<path d="M310.701 137.662C310.172 138.951 308.718 139.992 307.429 139.992C306.141 139.992 305.513 138.951 306.042 137.662C306.57 136.373 308.024 135.333 309.313 135.333C310.602 135.333 311.213 136.373 310.701 137.662Z" fill="#94C3FF"/>
<path d="M338.755 112.764C338.227 114.052 336.773 115.093 335.484 115.093C334.195 115.093 333.567 114.052 334.096 112.764C334.625 111.475 336.079 110.434 337.367 110.434C338.656 110.418 339.284 111.475 338.755 112.764Z" fill="#94C3FF"/>
<path d="M330.048 84.5933C329.519 85.882 328.065 86.9229 326.777 86.9229C325.488 86.9229 324.86 85.882 325.389 84.5933C325.918 83.3046 327.372 82.2637 328.66 82.2637C329.949 82.2637 330.577 83.3046 330.048 84.5933Z" fill="#FF8D02"/>
<path d="M277.045 104.073H218.854L223.299 93.0691H281.506L277.045 104.073Z" fill="url(#paint3_linear_47_180)"/>
<path opacity="0.39" d="M242.002 128.856H208.842L210.742 124.131H243.918L242.002 128.856Z" fill="#A1C2FF"/>
<path opacity="0.39" d="M237.029 119.405H212.659L217.103 108.402H241.49L237.029 119.405Z" fill="#A1C2FF"/>
<path d="M366.298 236.877L394.782 173.003C395.476 171.45 394.336 169.698 392.65 169.698H312.75C309.792 169.698 307.099 171.45 305.893 174.143L276.979 238.992C276.285 240.545 277.425 242.297 279.111 242.297H357.954C361.539 242.297 364.827 240.182 366.298 236.877Z" fill="white"/>
<path opacity="0.39" d="M350.105 221.083C363.56 210.076 368.495 193.853 361.128 184.848C353.761 175.843 336.882 177.466 323.428 188.473C309.973 199.48 305.038 215.703 312.405 224.707C319.772 233.712 336.651 232.089 350.105 221.083Z" fill="#A1C2FF"/>
<path d="M338.888 207.435C338.888 207.435 351.841 213.878 353.212 219.777C354.584 225.675 348.834 241.239 348.834 241.239H297.335C297.335 241.239 305.777 222.998 312.337 218.703C318.896 214.407 331.568 211.136 331.568 211.136L338.888 207.435Z" fill="url(#paint4_linear_47_180)"/>
<path d="M333.584 203.238L329.536 211.961C329.024 213.052 329.338 214.043 330.28 214.341C331.75 214.787 334.212 215.051 337.235 213.547C338.161 213.085 338.888 212.226 339.152 211.367C340.391 207.219 343.167 198.744 343.167 198.744L333.584 203.238Z" fill="#94C3FF"/>
<path d="M334.014 193.556C334.014 193.556 325.951 204.642 326.265 207.897C326.975 210.177 338.855 206.592 341.333 203.667C343.828 200.726 349.181 195.522 346.851 191.606C344.522 187.69 339.367 188.335 334.014 193.556Z" fill="#94C3FF"/>
<path d="M334.344 191.92C334.344 191.92 334.212 192.102 334.063 192.35C333.601 193.143 332.907 194.729 334.84 194.828C337.417 194.96 337.417 194.96 337.417 194.96C337.417 194.96 341.564 192.598 343.2 195.093C344.406 197.587 340.457 199.124 340.788 200.363C341.118 201.619 340.953 201.338 340.391 202.032C339.829 202.726 339.383 203.833 337.516 204.675C335.649 205.501 334.179 205.369 332.394 206.344C330.61 207.319 327.173 206.212 326.81 205.369C325.984 204.675 325.505 206.195 324.976 207.17C324.447 208.145 322.812 208.426 324.381 209.665C325.967 210.921 327.124 211.466 329.883 209.797C332.642 208.128 332.725 208.277 335.501 207.567C338.276 206.873 340.342 205.468 341.415 203.734C342.473 201.999 342.82 199.785 343.712 198.942C344.604 198.116 345.1 198.942 344.703 199.917C344.307 200.892 348.09 199.091 348.999 196.166C349.908 193.242 348.322 193.391 348.157 191.722C347.991 190.053 349.891 188.104 347.876 186.584C345.86 185.064 343.96 186.997 343.233 186.022C342.522 185.047 339.383 184.915 336.872 186.997C334.361 189.078 334.228 192.036 334.228 192.036" fill="#4361C4"/>
<path d="M343.233 199.24C343.233 199.24 344.323 197.835 345.546 198.414C346.752 199.041 343.084 203.205 341.762 202.742C340.523 202.197 343.233 199.24 343.233 199.24Z" fill="#94C3FF"/>
<path d="M325.951 205.815C325.951 205.815 327.14 201.503 330.131 200.958C333.138 200.396 334.493 202.214 334.294 203.734C334.096 205.254 335.418 206.096 335.418 206.096C335.418 206.096 327.851 209.698 325.951 205.815Z" fill="#4361C4"/>
<path d="M330.461 323.106L358.945 259.232C359.639 257.679 358.499 255.927 356.814 255.927H276.913C273.956 255.927 271.262 257.679 270.056 260.372L241.143 325.221C240.449 326.774 241.589 328.525 243.274 328.525H322.117C325.719 328.525 328.991 326.411 330.461 323.106Z" fill="white"/>
<path opacity="0.39" d="M314.374 307.221C328.125 295.972 333.17 279.392 325.641 270.189C318.112 260.987 300.862 262.646 287.111 273.896C273.36 285.145 268.316 301.725 275.844 310.928C283.373 320.13 300.623 318.471 314.374 307.221Z" fill="#A1C2FF"/>
<path d="M308.041 283.057C308.041 283.057 311.956 281.19 312.485 283.453C313.014 285.717 311.279 287.336 311.279 287.336C311.279 287.336 314.815 286.361 315.773 289.385C316.715 292.408 313.873 293.846 315.046 294.936C316.219 296.01 318.664 298.323 315.244 302.156C311.824 305.989 306.818 310.384 301.035 307.559C295.236 304.734 297.087 290.938 297.087 290.938L298.508 286.906L308.041 283.057Z" fill="#4361C4"/>
<path d="M304.257 271.491C304.257 271.491 295.517 272.235 292.758 278.348C289.999 284.461 295.484 284.891 295.484 284.891L304.257 271.491Z" fill="#4361C4"/>
<path d="M247.487 313.077C248.049 314.085 248.049 314.085 248.049 314.085C248.049 314.085 254.773 322.115 260.771 327.253H273.245C279.755 321.322 288.627 310.995 288.677 310.566C288.726 309.971 296.492 301.528 294.79 298.075C293.072 294.639 290.858 295.184 290.858 295.184C290.858 295.184 288.33 295.531 285.488 298.472C282.646 301.413 268.635 323.139 268.635 323.139C268.635 323.139 266.835 319.901 263.53 317.422C260.209 314.944 250.527 309.723 250.527 309.723C250.527 309.723 251.122 305.527 251.072 304.734C251.023 303.924 248.611 300.273 247.867 301.049C247.14 301.842 248.842 305.279 248.842 305.279C248.842 305.279 246.925 312.069 247.487 313.077Z" fill="#94C3FF"/>
<path d="M278.697 321.173C278.697 321.173 279.061 323.85 279.788 327.253H304.555C305.1 321.669 306.256 310.434 306.95 307.757C307.876 304.172 307.066 296.539 307.363 294.44C307.661 292.342 301.68 293.119 301.68 293.119L293.881 293.251L292.626 293.796C290.891 294.539 289.338 295.845 288.313 297.398C287.355 298.868 285.918 301.033 284.018 303.858C280.944 306.187 274.137 310.252 274.65 315.374C275.112 320.496 278.697 321.173 278.697 321.173Z" fill="url(#paint5_linear_47_180)"/>
<path d="M296.475 288.509C296.475 288.509 289.553 297.067 287.652 307.856C289.916 307.162 296.773 300.867 300.837 297.018C302.539 295.399 302.704 294.506 302.39 292.854C302.242 292.028 302.952 289.764 303.91 287.171C304.538 283.585 296.475 288.509 296.475 288.509Z" fill="#94C3FF"/>
<path d="M318.202 323.552C318.202 323.552 319.276 325.039 321.06 327.27H332.146C330.015 324.445 328.313 322.148 327.785 321.355C325.967 318.612 313.311 290.987 305.595 294.424C304.174 295.052 299.02 299.397 301.118 304.238C303.2 309.095 318.202 323.552 318.202 323.552Z" fill="#94C3FF"/>
<path d="M296.178 277.208C295.087 278.579 292.345 282.165 290.726 285.32C289.305 288.079 290.279 290.607 292.923 290.888C296.74 291.301 302.539 290.343 304.455 288.162C307.297 284.924 313.361 279.191 310.899 274.73C308.503 270.401 303.051 270.847 297.169 276.134C296.789 276.481 296.459 276.844 296.178 277.208Z" fill="#94C3FF"/>
<path d="M298.739 274.383C298.739 274.383 294.922 280.628 305.777 284.626L307.148 285.238C307.148 285.238 311.89 281.471 311.956 277.489C312.023 273.507 309.974 272.053 307.892 271.177C305.827 270.318 300.193 272.896 298.739 274.383Z" fill="#4361C4"/>
<path d="M305.48 285.518C305.48 285.518 308.222 283.618 308.189 285.37C308.156 287.121 304.307 288.988 303.894 288.261C303.497 287.534 305.48 285.518 305.48 285.518Z" fill="#94C3FF"/>
<path d="M243.638 270.169H155.624C152.931 270.169 151.626 267.988 152.717 265.279L158.978 249.798C160.069 247.104 163.142 244.907 165.835 244.907H253.848C256.541 244.907 257.847 247.088 256.756 249.798L250.494 265.279C249.404 267.988 246.331 270.169 243.638 270.169Z" fill="url(#paint6_linear_47_180)"/>
<path d="M242.944 258.769H167.157L168.644 255.101H244.431L242.944 258.769Z" fill="white"/>
<path d="M172.461 15.1838H169.487C168.958 15.1838 168.71 14.7542 168.925 14.2255L170.131 11.2515C170.346 10.7228 170.941 10.2932 171.469 10.2932H174.443C174.972 10.2932 175.22 10.7228 175.005 11.2515L173.799 14.2255C173.584 14.7542 172.989 15.1838 172.461 15.1838Z" fill="#F9FBFC"/>
<path d="M202.993 15.1838H200.019C199.491 15.1838 199.243 14.7542 199.458 14.2255L200.664 11.2515C200.879 10.7228 201.473 10.2932 202.002 10.2932H204.976C205.505 10.2932 205.753 10.7228 205.538 11.2515L204.332 14.2255C204.117 14.7542 203.506 15.1838 202.993 15.1838Z" fill="#BFD9FF"/>
<path d="M166.777 29.2111H163.803C163.274 29.2111 163.026 28.7815 163.241 28.2528L164.447 25.2788C164.662 24.7501 165.257 24.3206 165.786 24.3206H168.76C169.288 24.3206 169.536 24.7501 169.321 25.2788L168.115 28.2528C167.917 28.798 167.306 29.2111 166.777 29.2111Z" fill="#BFD9FF"/>
<path d="M182.043 29.2111H179.069C178.541 29.2111 178.293 28.7815 178.508 28.2528L179.714 25.2788C179.929 24.7501 180.523 24.3206 181.052 24.3206H184.026C184.555 24.3206 184.803 24.7501 184.588 25.2788L183.382 28.2528C183.183 28.798 182.572 29.2111 182.043 29.2111Z" fill="#F9FBFC"/>
<path d="M197.31 29.2111H194.336C193.807 29.2111 193.559 28.7815 193.774 28.2528L194.98 25.2788C195.195 24.7501 195.79 24.3206 196.318 24.3206H199.292C199.821 24.3206 200.069 24.7501 199.854 25.2788L198.648 28.2528C198.433 28.798 197.838 29.2111 197.31 29.2111Z" fill="#F9FBFC"/>
<path d="M209.52 29.2111H206.546C206.017 29.2111 205.769 28.7815 205.984 28.2528L207.19 25.2788C207.405 24.7501 208 24.3206 208.528 24.3206H211.502C212.031 24.3206 212.279 24.7501 212.064 25.2788L210.858 28.2528C210.643 28.798 210.048 29.2111 209.52 29.2111Z" fill="#F9FBFC"/>
<path d="M161.11 43.255H158.136C157.607 43.255 157.359 42.8255 157.574 42.2968L158.78 39.3228C158.995 38.7941 159.59 38.3645 160.119 38.3645H163.093C163.621 38.3645 163.869 38.7941 163.654 39.3228L162.448 42.2968C162.233 42.842 161.639 43.255 161.11 43.255Z" fill="#F9FBFC"/>
<path d="M148.9 43.255H145.926C145.397 43.255 145.15 42.8255 145.364 42.2968L146.57 39.3228C146.785 38.7941 147.38 38.3645 147.909 38.3645H150.883C151.411 38.3645 151.659 38.7941 151.444 39.3228L150.238 42.2968C150.024 42.842 149.429 43.255 148.9 43.255Z" fill="#F9FBFC"/>
<path d="M176.376 43.255H173.402C172.874 43.255 172.626 42.8255 172.841 42.2968L174.047 39.3228C174.262 38.7941 174.856 38.3645 175.385 38.3645H178.359C178.888 38.3645 179.136 38.7941 178.921 39.3228L177.715 42.2968C177.5 42.842 176.905 43.255 176.376 43.255Z" fill="#F9FBFC"/>
<path d="M191.643 43.255H188.669C188.14 43.255 187.892 42.8255 188.107 42.2968L189.313 39.3228C189.528 38.7941 190.123 38.3645 190.651 38.3645H193.625C194.154 38.3645 194.402 38.7941 194.187 39.3228L192.981 42.2968C192.766 42.842 192.171 43.255 191.643 43.255Z" fill="#BFD9FF"/>
<path d="M155.443 57.2985H152.469C151.94 57.2985 151.692 56.8689 151.907 56.3402L153.113 53.3662C153.328 52.8375 153.923 52.408 154.451 52.408H157.425C157.954 52.408 158.202 52.8375 157.987 53.3662L156.781 56.3402C156.566 56.8689 155.971 57.2985 155.443 57.2985Z" fill="#F9FBFC"/>
<path d="M173.667 290.839H169.47C168.726 290.839 168.363 290.244 168.66 289.5L170.362 285.304C170.659 284.56 171.502 283.965 172.246 283.965H176.442C177.186 283.965 177.549 284.56 177.252 285.304L175.55 289.5C175.253 290.244 174.41 290.839 173.667 290.839Z" fill="url(#paint7_linear_47_180)"/>
<path d="M216.707 290.839H212.51C211.766 290.839 211.403 290.244 211.7 289.5L213.402 285.304C213.7 284.56 214.542 283.965 215.286 283.965H219.482C220.226 283.965 220.589 284.56 220.292 285.304L218.59 289.5C218.293 290.244 217.434 290.839 216.707 290.839Z" fill="url(#paint8_linear_47_180)"/>
<path d="M165.67 310.632H161.473C160.73 310.632 160.366 310.037 160.664 309.294L162.365 305.097C162.663 304.354 163.505 303.759 164.249 303.759H168.446C169.189 303.759 169.553 304.354 169.255 305.097L167.553 309.294C167.256 310.037 166.413 310.632 165.67 310.632Z" fill="#BFD9FF"/>
<path d="M187.182 310.632H182.985C182.241 310.632 181.878 310.037 182.175 309.294L183.877 305.097C184.175 304.354 185.017 303.759 185.761 303.759H189.957C190.701 303.759 191.064 304.354 190.767 305.097L189.065 309.294C188.768 310.037 187.925 310.632 187.182 310.632Z" fill="#FF8D02"/>
<path d="M208.71 310.632H204.513C203.77 310.632 203.406 310.037 203.704 309.294L205.406 305.097C205.703 304.354 206.546 303.759 207.289 303.759H211.486C212.229 303.759 212.593 304.354 212.295 305.097L210.593 309.294C210.296 310.037 209.437 310.632 208.71 310.632Z" fill="#BFD9FF"/>
<path d="M225.909 310.632H221.713C220.969 310.632 220.606 310.037 220.903 309.294L222.605 305.097C222.902 304.354 223.745 303.759 224.488 303.759H228.685C229.429 303.759 229.792 304.354 229.495 305.097L227.793 309.294C227.495 310.037 226.653 310.632 225.909 310.632Z" fill="#BFD9FF"/>
<path d="M157.673 330.425H153.477C152.733 330.425 152.37 329.831 152.667 329.087L154.369 324.891C154.666 324.147 155.509 323.552 156.252 323.552H160.449C161.192 323.552 161.556 324.147 161.258 324.891L159.557 329.087C159.259 329.831 158.417 330.425 157.673 330.425Z" fill="#BFD9FF"/>
<path d="M140.474 330.425H136.277C135.534 330.425 135.17 329.831 135.467 329.087L137.169 324.891C137.467 324.147 138.309 323.552 139.053 323.552H143.249C143.993 323.552 144.356 324.147 144.059 324.891L142.357 329.087C142.06 329.831 141.201 330.425 140.474 330.425Z" fill="#BFD9FF"/>
<path d="M179.185 330.425H174.988C174.245 330.425 173.881 329.831 174.195 329.087L175.897 324.891C176.194 324.147 177.037 323.552 177.78 323.552H181.977C182.721 323.552 183.084 324.147 182.787 324.891L181.085 329.087C180.771 329.831 179.928 330.425 179.185 330.425Z" fill="#BFD9FF"/>
<path d="M200.713 330.425H196.517C195.773 330.425 195.41 329.831 195.707 329.087L197.409 324.891C197.706 324.147 198.549 323.552 199.292 323.552H203.489C204.232 323.552 204.596 324.147 204.298 324.891L202.597 329.087C202.299 329.831 201.44 330.425 200.713 330.425Z" fill="#FF8D02"/>
<path d="M149.676 350.219H145.48C144.736 350.219 144.373 349.624 144.67 348.881L146.372 344.684C146.669 343.94 147.512 343.346 148.255 343.346H152.452C153.196 343.346 153.559 343.94 153.262 344.684L151.56 348.881C151.263 349.624 150.42 350.219 149.676 350.219Z" fill="#FF8D02"/>
<path opacity="0.39" d="M246.843 207.501H127.801L147.479 169.038H266.537L246.843 207.501Z" fill="#A1C2FF"/>
<path d="M236.852 198.475C244.185 192 246.036 182.116 240.987 176.398C235.937 170.679 225.9 171.292 218.568 177.767C211.235 184.242 209.384 194.126 214.433 199.844C219.483 205.563 229.52 204.949 236.852 198.475Z" fill="url(#paint9_linear_47_180)"/>
<path d="M223.679 196.051C223.183 196.051 222.737 195.87 222.456 195.49L218.408 190.103C217.847 189.36 218.144 188.137 219.086 187.377C220.028 186.634 221.234 186.634 221.812 187.377L224.836 191.409L235.625 182.768C236.566 182.024 237.772 182.024 238.351 182.768C238.912 183.511 238.615 184.734 237.673 185.494L225.183 195.49C224.72 195.87 224.175 196.051 223.679 196.051Z" fill="white"/>
<path d="M133.881 95.8448C133.881 98.8683 131.667 101.314 128.941 101.314C126.215 101.314 124.001 98.8683 124.001 95.8448C124.001 92.8212 126.215 90.376 128.941 90.376C131.667 90.376 133.881 92.8212 133.881 95.8448Z" stroke="#505E83" stroke-width="0.5192" stroke-miterlimit="10"/>
<path d="M82.134 125.403C82.134 125.403 74.2529 125.932 68.371 133.879C62.4892 141.826 71.0146 170.987 96.343 182.768C112.832 189.244 114.005 174.523 109.891 164.213C105.761 153.903 93.8316 127.815 82.134 125.403Z" fill="white"/>
<path d="M194.699 437.505C194.699 441.239 158.582 444.28 114.022 444.28C69.4616 444.28 33.3443 441.239 33.3443 437.505C33.3443 433.771 69.4616 430.731 114.022 430.731C158.582 430.731 194.699 433.771 194.699 437.505Z" fill="#BFD9FF"/>
<path d="M84.5462 415.597C84.5462 415.597 86.2645 411.929 92.609 412.904C98.97 413.878 99.6969 415.101 100.44 418.29C101.167 421.462 103.381 424.899 104.835 425.626C106.306 426.353 111.675 430.02 116.087 430.764C120.482 431.491 120.977 434.184 120.003 435.407C119.028 436.629 102.407 437.604 98.7387 437.125C98.7387 437.125 86.2645 436.877 83.3401 435.902C80.3826 434.911 84.2983 416.819 84.5462 415.597Z" fill="#16142A"/>
<path d="M116.401 415.597C116.401 415.597 118.119 411.929 124.464 412.904C130.825 413.878 131.552 415.101 132.295 418.29C133.022 421.462 135.236 424.899 136.69 425.626C138.16 426.353 143.53 430.02 147.942 430.764C152.336 431.491 152.832 434.184 151.857 435.407C150.882 436.629 134.261 437.604 130.593 437.125C130.593 437.125 118.119 436.877 115.195 435.902C112.237 434.911 116.153 416.819 116.401 415.597Z" fill="#16142A"/>
<path d="M78.6643 324.56C78.6643 324.56 76.7973 314.432 87.5036 311.028C98.1934 307.625 100.226 312.565 103.464 321.801C106.702 331.037 100.721 418.24 100.721 418.24C100.721 418.24 87.6854 418.538 84.5297 416.671C84.5297 416.671 75.8225 358.794 76.4669 344.7C77.1112 330.624 78.6643 324.56 78.6643 324.56Z" fill="#2B3554"/>
<path d="M128.726 99.5623C128.726 99.5623 131.221 102.949 131.221 104.717C131.221 106.485 127.834 106.485 127.834 106.485L128.726 99.5623Z" fill="#FF7759"/>
<path d="M116.682 65.0806C116.682 65.0806 123.918 66.931 128.016 78.0339C132.113 89.1368 129.387 112.747 126.644 115.523C123.918 118.298 115.608 117.241 104.108 113.441C91.9481 109.426 87.834 96.7865 85.6697 88.4428C81.5061 72.4825 95.3846 56.0595 116.682 65.0806Z" fill="#FF8D68"/>
<path d="M90.7255 126.394L96.5908 105.362C96.5908 105.362 108.322 101.941 115.657 109.756L118.103 113.176V126.873C118.119 126.873 105.893 129.319 90.7255 126.394Z" fill="#FF8D68"/>
<path d="M74.3522 239.587C74.3522 239.587 69.9573 265.262 74.3522 294.606C78.7471 323.949 87.5533 326.873 95.6161 326.873C103.679 326.873 105.893 303.395 107.347 293.135C108.817 282.858 114.683 247.666 103.679 239.587C92.6917 231.524 80.2175 230.797 74.3522 239.587Z" fill="#2B3554"/>
<path d="M105.149 274.069C105.149 274.069 96.3431 250.591 111.758 240.331C127.157 230.054 138.904 231.524 142.572 248.393C146.24 265.262 146.967 323.205 141.845 334.953C136.69 346.683 118.367 328.344 105.149 274.069Z" fill="#2B3F63"/>
<path d="M87.6193 126.279C87.6193 126.279 89.255 120.529 90.7254 120.033C92.1959 119.538 110.288 117.588 120.069 123.453C124.464 126.873 123.984 129.319 123.984 129.319C123.984 129.319 94.7899 123.718 87.6193 126.279Z" fill="white"/>
<path d="M141.399 239.587C141.399 239.587 142.869 243.123 141.994 244.296C140.821 245.469 107.545 257.249 72.5016 248.707C71.9068 248.707 73.3773 242.825 73.3773 242.825L141.399 239.587Z" fill="#6060E7"/>
<path d="M72.1547 186.535C71.1799 179.694 68.239 145.94 69.2138 141.049C70.1225 136.473 74.0382 128.063 82.1175 125.386C82.6793 125.204 83.2741 125.039 83.8854 124.907C83.8854 124.907 114.203 122.957 135.715 132.243C135.715 132.243 143.084 138.356 144.439 169.533C144.439 169.533 144.042 174.787 142.853 185.989C141.68 197.175 143.448 205.419 145.215 216.621C146.983 227.807 150.519 239.009 137.566 241.355C125.191 243.718 91.0394 249.599 71.0147 243.718C66.8841 240.777 72.7825 227.228 72.7825 216.621C72.7825 206.014 72.1547 186.535 72.1547 186.535Z" fill="url(#paint10_linear_47_180)"/>
<path d="M119.094 326.146C119.094 326.146 118.367 315.869 129.371 313.672C140.375 311.475 141.845 316.613 144.042 326.146C146.24 335.679 133.204 418.835 133.204 418.835C133.204 418.835 118.813 419.661 115.872 417.464C115.872 417.464 112.502 359.884 114.716 345.94C116.897 332.012 119.094 326.146 119.094 326.146Z" fill="#2B3F63"/>
<path d="M102.225 268.567C102.225 268.567 112.502 301.578 120.201 317.704" stroke="#2A2E59" stroke-width="0.6659" stroke-miterlimit="10"/>
<path d="M123.125 324.312C123.125 324.312 129.354 320.644 135.599 324.312" stroke="#2A2E59" stroke-width="0.6659" stroke-miterlimit="10"/>
<path d="M122.035 328.344C122.035 328.344 127.173 325.403 135.963 331.648" stroke="#2A2E59" stroke-width="0.6659" stroke-miterlimit="10"/>
<path d="M83.5219 319.917C83.5219 319.917 87.5532 316.25 96.723 320.281" stroke="#2A2E59" stroke-width="0.6659" stroke-miterlimit="10"/>
<path d="M86.4464 323.586C86.4464 323.586 92.3117 320.645 97.8136 325.056" stroke="#2A2E59" stroke-width="0.6659" stroke-miterlimit="10"/>
<path d="M100.027 329.451L97.83 404.263" stroke="#2A2E59" stroke-width="0.6659" stroke-miterlimit="10"/>
<path d="M130.345 266.733C130.345 266.733 138.656 271.623 142.076 263.792" stroke="#2A2E59" stroke-width="0.6659" stroke-miterlimit="10"/>
<path d="M138.656 267.708C138.656 267.708 142.572 298.026 141.597 318.067" stroke="#2A2E59" stroke-width="0.6659" stroke-miterlimit="10"/>
<path d="M113.41 110.682C113.41 110.682 115.971 117.29 124.596 116.184" stroke="#E66657" stroke-width="0.6659" stroke-miterlimit="10"/>
<path d="M124.48 69.9383C124.48 69.9383 128.66 75.688 128.925 79.075C129.189 82.462 123.704 85.8656 122.927 87.9474C122.151 90.0291 123.935 92.6562 123.158 93.9614C122.349 95.2666 122.101 97.9432 122.101 97.9432L122.365 100.901C122.464 101.975 121.737 102.966 120.664 103.181L120.036 103.313C119.127 103.495 118.235 103.016 117.904 102.156C116.963 99.7937 115.03 95.3823 113.509 95.0023C111.428 94.4736 109.329 98.1415 108.553 99.9589C108.107 100.983 107 103.776 106.124 106.006C105.348 107.956 103.53 109.294 101.432 109.443C99.1683 109.608 96.4587 109.723 95.4674 109.426C93.6334 108.897 84.2819 91.5987 84.0175 83.2386C83.7532 74.8784 89.5029 66.5347 95.5004 63.9242C101.498 61.3137 113.245 58.9676 124.48 69.9383Z" fill="#7E3636"/>
<path d="M82.1671 142.52C82.1671 144.866 92.0143 180.322 90.4447 186.584C88.8751 192.846 84.5628 236.646 84.5628 236.646" stroke="#6060E7" stroke-width="0.6659" stroke-miterlimit="10"/>
<path d="M109.445 58.5544C109.445 58.5544 115.195 58.7692 117.177 55.9109C119.16 53.0361 125.571 52.3752 130.213 57.0179C134.856 61.6606 134.625 70.2686 130.659 73.3582C130.659 73.3582 135.302 72.4826 135.963 75.787C136.624 79.1079 130.891 84.1802 124.034 85.7333C124.034 85.7333 112.997 82.6437 109.676 84.6263C106.355 86.609 84.0505 84.4115 84.0505 84.4115C84.0505 84.4115 79.193 80.0001 80.5148 76.0183C81.8366 72.0365 83.1583 76.2331 83.1583 76.2331C83.1583 76.2331 82.0513 70.7147 89.3376 62.7676C96.6238 54.8039 106.785 59.2153 109.445 58.5544Z" fill="#7E3636"/>
<path d="M217.88 176.935L233.559 177.596C233.559 177.596 233.113 179.149 230.684 179.579C228.255 180.025 219.201 181.132 219.201 181.132L217.88 176.935Z" fill="#EB7754"/>
<path d="M219.879 180.256C219.879 180.256 225.182 179.381 226.289 179.595C227.396 179.81 228.503 186.221 228.503 186.221L224.307 190.632C224.307 190.632 222.754 189.971 224.307 187.543L225.182 185.989L218.772 183.561L219.879 180.256Z" fill="#FF8D68"/>
<path d="M204.629 184.006L211.254 183.131C211.254 183.131 216.773 177.612 217.88 176.951C218.986 176.291 224.505 184.899 225.166 186.006C225.166 186.881 221.845 189.756 218.54 190.202C215.219 190.648 214.129 189.756 214.129 189.756L206.843 192.631L204.629 184.006Z" fill="#FF8D68"/>
<path d="M135.715 132.259C135.715 132.259 120.928 132.111 121.357 150.219C121.804 168.327 152.716 197.918 161.11 201.454C169.503 204.99 205.29 195.275 208.379 193.507C211.469 191.739 210.593 184.238 205.736 182.47L169.073 180.702C169.073 180.702 146.091 133.73 135.715 132.259Z" fill="white"/>
<path d="M169.668 183.643C169.668 183.643 174.08 188.352 172.906 194.531" stroke="#A6D0F4" stroke-width="0.5347" stroke-miterlimit="10"/>
<path d="M172.014 182.751C172.014 182.751 179.383 185.113 179.961 193.061" stroke="#A6D0F4" stroke-width="0.5347" stroke-miterlimit="10"/>
<path d="M133.881 95.8447H118.565" stroke="#505E83" stroke-width="0.5192" stroke-miterlimit="10"/>
<path d="M120.383 97.6622C120.383 97.6622 119.342 93.1517 115.525 95.2335C111.709 97.3153 116.219 108.071 119.342 107.377C122.464 106.7 121.077 99.397 120.383 97.6622Z" fill="#FF7759"/>
<path d="M88.4619 76.4477C88.4619 76.4477 99.0691 74.0189 106.57 81.966" stroke="#663136" stroke-width="0.5347" stroke-miterlimit="10"/>
<path d="M89.8497 74.8285C89.8497 74.8285 94.4098 69.971 102.225 72.0363" stroke="#663136" stroke-width="0.5347" stroke-miterlimit="10"/>
<path d="M88.8254 78.5132C88.8254 78.5132 92.0638 78.8106 94.2777 82.495" stroke="#663136" stroke-width="0.5347" stroke-miterlimit="10"/>
<path d="M120.928 57.4473C120.928 57.4473 131.535 60.7682 129.106 70.4832" stroke="#663136" stroke-width="0.5347" stroke-miterlimit="10"/>
<defs>
<linearGradient id="paint0_linear_47_180" x1="119.005" y1="187.351" x2="433.003" y2="187.351" gradientUnits="userSpaceOnUse">
<stop stop-color="white" stop-opacity="0.2"/>
<stop offset="1" stop-color="white" stop-opacity="0.7"/>
</linearGradient>
<linearGradient id="paint1_linear_47_180" x1="231.925" y1="67.0306" x2="279.243" y2="67.0306" gradientUnits="userSpaceOnUse">
<stop stop-color="#34ACE0"/>
<stop offset="0.4307" stop-color="#209ED8"/>
<stop offset="1" stop-color="#0088CC"/>
</linearGradient>
<linearGradient id="paint2_linear_47_180" x1="312.256" y1="38.5214" x2="373.171" y2="38.5214" gradientUnits="userSpaceOnUse">
<stop stop-color="#34ACE0"/>
<stop offset="0.4307" stop-color="#209ED8"/>
<stop offset="1" stop-color="#0088CC"/>
</linearGradient>
<linearGradient id="paint3_linear_47_180" x1="218.856" y1="98.5712" x2="281.506" y2="98.5712" gradientUnits="userSpaceOnUse">
<stop stop-color="#34ACE0"/>
<stop offset="0.4307" stop-color="#209ED8"/>
<stop offset="1" stop-color="#0088CC"/>
</linearGradient>
<linearGradient id="paint4_linear_47_180" x1="297.336" y1="224.337" x2="353.423" y2="224.337" gradientUnits="userSpaceOnUse">
<stop stop-color="#34ACE0"/>
<stop offset="0.4307" stop-color="#209ED8"/>
<stop offset="1" stop-color="#0088CC"/>
</linearGradient>
<linearGradient id="paint5_linear_47_180" x1="274.623" y1="310.116" x2="307.41" y2="310.116" gradientUnits="userSpaceOnUse">
<stop stop-color="#34ACE0"/>
<stop offset="0.4307" stop-color="#209ED8"/>
<stop offset="1" stop-color="#0088CC"/>
</linearGradient>
<linearGradient id="paint6_linear_47_180" x1="152.335" y1="257.539" x2="257.141" y2="257.539" gradientUnits="userSpaceOnUse">
<stop stop-color="#34ACE0"/>
<stop offset="0.4307" stop-color="#209ED8"/>
<stop offset="1" stop-color="#0088CC"/>
</linearGradient>
<linearGradient id="paint7_linear_47_180" x1="168.557" y1="287.402" x2="177.356" y2="287.402" gradientUnits="userSpaceOnUse">
<stop stop-color="#34ACE0"/>
<stop offset="0.4307" stop-color="#209ED8"/>
<stop offset="1" stop-color="#0088CC"/>
</linearGradient>
<linearGradient id="paint8_linear_47_180" x1="211.597" y1="287.402" x2="220.396" y2="287.402" gradientUnits="userSpaceOnUse">
<stop stop-color="#34ACE0"/>
<stop offset="0.4307" stop-color="#209ED8"/>
<stop offset="1" stop-color="#0088CC"/>
</linearGradient>
<linearGradient id="paint9_linear_47_180" x1="214.435" y1="199.844" x2="240.987" y2="176.398" gradientUnits="userSpaceOnUse">
<stop stop-color="#34ACE0"/>
<stop offset="0.4307" stop-color="#209ED8"/>
<stop offset="1" stop-color="#0088CC"/>
</linearGradient>
<linearGradient id="paint10_linear_47_180" x1="69.0209" y1="185.497" x2="147.026" y2="185.497" gradientUnits="userSpaceOnUse">
<stop stop-color="#34ACE0"/>
<stop offset="0.4307" stop-color="#209ED8"/>
<stop offset="1" stop-color="#0088CC"/>
</linearGradient>
</defs>
</svg>
